<?xml version="1.0" encoding="UTF-8"?>
<svg xmlns="http://www.w3.org/2000/svg" width="88" height="100" viewBox="0 0 88 100" fill="none">
  <path d="M77.5313 53.9118C77.6649 53.3051 77.4821 52.6724 77.0472 52.2336L63.9895 39.0588C67.8259 33.7238 67.2493 26.3665 62.6298 21.7056C58.0104 17.0448 50.7185 16.4629 45.4309 20.3338L32.372 7.15893C31.9372 6.71898 31.3101 6.53567 30.7099 6.66931C30.1086 6.80413 29.6175 7.23817 29.4077 7.8224L18.6579 37.6479C15.1145 47.4356 9.50112 56.328 2.2092 63.7078C-0.736401 66.6798 -0.736401 71.4991 2.2092 74.4723L10.3322 82.667C13.2778 85.6402 18.0543 85.6402 20.9999 82.667C21.0503 82.6173 21.1019 82.5688 21.1499 82.5191L37.9479 99.4678C38.6512 100.177 39.7906 100.177 40.4938 99.4678C45.6841 94.2322 45.6841 85.7431 40.4938 80.5074L33.0097 72.9562C37.3537 70.1604 41.9872 67.8518 46.8281 66.0707L76.3885 55.2246C76.9663 55.0129 77.3977 54.5173 77.5313 53.9118ZM53.2327 21.4123C56.7714 21.4123 60.0277 23.3578 61.7284 26.4883C63.4292 29.6188 63.3026 33.4364 61.3979 36.4451L48.0202 22.9474C49.5756 21.941 51.3854 21.4076 53.2327 21.4123ZM15.6666 81.2632C14.6199 81.2667 13.6165 80.8469 12.8781 80.0982L4.75628 71.9024C3.21608 70.3496 3.21608 67.8305 4.75628 66.2765C6.15816 64.8609 7.50379 63.3861 8.79315 61.8545L22.8355 76.0252C21.3199 77.3249 19.8594 78.6826 18.4528 80.0982C17.7155 80.8469 16.7122 81.2667 15.6666 81.2632ZM37.9491 83.0774C41.2405 86.3995 41.7258 91.6138 39.1048 95.4965L23.7708 80.0249C25.7436 78.2438 27.8136 76.5751 29.9703 75.027L37.9491 83.0774ZM45.5974 62.6564C38.4297 65.2996 31.7039 69.0345 25.6568 73.732L11.0659 59.0103C15.7205 52.9077 19.4222 46.1228 22.0419 38.8897L31.8246 11.7441L72.5016 52.7847L45.5974 62.6564Z" fill="#408858"></path>
  <path d="M72.8372 15.3027C67.2941 9.69928 58.9672 7.98442 51.6928 10.9505C50.7704 11.3254 50.3238 12.3839 50.6953 13.3147C51.0669 14.2454 52.116 14.696 53.0385 14.3211C58.9742 11.9085 65.7645 13.3052 70.2901 17.8715C74.8146 22.4365 76.2001 29.2877 73.8089 35.2778C73.4373 36.2074 73.8839 37.2659 74.8064 37.6408C75.7289 38.0157 76.7768 37.5651 77.1483 36.6355C80.0881 29.2959 78.3896 20.8943 72.8372 15.3027Z" fill="#408858"></path>
  <path d="M83.5639 41.0185C84.4864 41.3934 85.5354 40.9428 85.907 40.012C90.2322 29.18 87.7285 16.7893 79.5434 8.532C71.3595 0.273489 59.0777 -2.25267 48.3432 2.11134C47.4207 2.48624 46.9742 3.54472 47.3457 4.47548C47.7173 5.40623 48.7664 5.85682 49.6889 5.48192C59.0848 1.66193 69.8345 3.8735 76.9975 11.1007C84.1605 18.328 86.3524 29.1741 82.5664 38.6543C82.1948 39.5851 82.6414 40.6436 83.5639 41.0185Z" fill="#408858"></path>
</svg>
