<?xml version="1.0" encoding="UTF-8"?>
<svg xmlns="http://www.w3.org/2000/svg" width="110" height="100" viewBox="0 0 110 100" fill="none">
  <path d="M110 13.6804C110 13.6683 109.998 13.6562 109.998 13.6439C109.996 13.5957 109.994 13.5482 109.988 13.5011C109.986 13.4839 109.983 13.4666 109.98 13.4493C109.974 13.4059 109.966 13.3631 109.956 13.3213C109.952 13.3046 109.948 13.2882 109.943 13.2716C109.931 13.226 109.916 13.1813 109.9 13.1373C109.897 13.1289 109.895 13.1202 109.892 13.112L105.521 1.86568C105.08 0.732452 104.013 0 102.803 0H94.8439C93.9764 0 93.2732 0.706756 93.2732 1.5787C93.2732 2.45065 93.9764 3.1574 94.8439 3.1574H102.65L106.129 12.1077H73.2421L71.1815 3.1574H83.3272C84.1948 3.1574 84.8979 2.45065 84.8979 1.5787C84.8979 0.706756 84.1948 0 83.3272 0H69.2058H53.3789H19.782C18.5711 0 17.5042 0.732452 17.0636 1.86611L12.6926 13.112C12.6894 13.1204 12.6877 13.1291 12.6844 13.1373C12.6681 13.1811 12.6539 13.2258 12.6415 13.2716C12.6369 13.2882 12.6327 13.3046 12.6288 13.3213C12.6189 13.3634 12.611 13.4061 12.6045 13.4493C12.6019 13.4666 12.5987 13.4839 12.5966 13.5011C12.5912 13.5482 12.5882 13.5957 12.5869 13.6439C12.5867 13.656 12.5852 13.668 12.585 13.6804C12.585 13.6823 12.5847 13.6842 12.5847 13.6862V36.8798C12.5847 37.7517 13.2879 38.4585 14.1555 38.4585C15.023 38.4585 15.7262 37.7517 15.7262 36.8798V15.2651H49.0209V39.2615C49.0209 40.2 49.5708 41.0551 50.4223 41.4401C50.734 41.5811 51.0659 41.65 51.3957 41.65C51.9664 41.65 52.5307 41.444 52.9733 41.0497L61.2923 33.6423L69.6112 41.0495C70.3097 41.672 71.3113 41.8251 72.1627 41.4401C73.0139 41.0549 73.5639 40.2 73.5639 39.2615V15.2651H106.858V86.0752C106.858 87.208 105.941 88.1298 104.814 88.1298H76.0137C76.0137 88.1119 76.0116 88.094 76.0114 88.0761C76.0097 87.9344 76.0045 87.793 75.9925 87.6526C78.6967 88.3732 81.5861 86.9763 82.6698 84.3052C83.2398 82.9001 83.2314 81.3562 82.646 79.9578C82.5907 79.826 82.5299 79.6982 82.4659 79.5723C82.4541 79.5492 82.4427 79.5259 82.4309 79.503C82.3679 79.3829 82.3009 79.2657 82.2302 79.1515C82.2165 79.1292 82.2023 79.1076 82.1883 79.0856C82.1136 78.9683 82.036 78.8533 81.9533 78.7425C81.9518 78.7403 81.9501 78.7384 81.9486 78.7364C81.8665 78.627 81.7797 78.5216 81.6901 78.4186C81.6738 78.3998 81.6577 78.3808 81.6411 78.362C81.5524 78.2627 81.4602 78.1666 81.3648 78.0739C81.3462 78.0558 81.3272 78.0383 81.3083 78.0206C81.2084 77.9262 81.1062 77.8345 80.9996 77.7479C80.996 77.7451 80.9923 77.7423 80.9887 77.7395C80.8838 77.6546 80.7749 77.5743 80.6638 77.497C80.6438 77.4829 80.6241 77.4687 80.6037 77.4549C80.4926 77.3797 80.3787 77.3087 80.2618 77.2411C80.2522 77.2355 80.2434 77.229 80.2335 77.2234C80.8973 76.646 81.4213 75.9152 81.7625 75.0744C82.3325 73.6693 82.3241 72.1254 81.7387 70.7268C81.2265 69.503 80.3261 68.5188 79.1728 67.9081C79.008 67.8209 78.8381 67.7412 78.6634 67.6698L54.217 57.651L65.5964 54.111C68.3037 53.2686 69.8284 50.3664 68.9953 47.642C68.6844 46.6249 68.068 45.7672 67.2718 45.1404C66.0869 44.2073 64.5033 43.786 62.9328 44.1175C62.9253 44.1192 62.918 44.1205 62.9105 44.1225C62.8235 44.1421 54.1 46.1136 44.9891 47.8992C44.585 47.9784 44.1912 48.0549 43.803 48.13C43.4923 48.19 43.1859 48.2492 42.8854 48.3066C42.799 48.3233 42.7124 48.3397 42.6267 48.3561C42.096 48.4574 41.5819 48.5543 41.0822 48.6476C40.8811 48.6852 40.6817 48.7223 40.4856 48.7586C29.0437 50.8771 25.8294 50.9151 24.9374 50.7938C24.9339 50.7933 24.9309 50.7929 24.9275 50.7923C24.9139 50.7903 24.9006 50.7884 24.8882 50.7864C24.8791 50.7849 24.8708 50.7834 24.8624 50.7821C24.8564 50.781 24.8499 50.78 24.8441 50.7791C24.7885 50.7689 24.7451 50.7584 24.7116 50.7482L24.4542 50.6428L24.7749 49.8523C25.0903 49.0749 25.0856 48.2207 24.7618 47.447C24.6808 47.2535 24.5822 47.0708 24.4679 46.9007C24.125 46.3904 23.6401 45.9931 23.0601 45.7554L14.6236 42.298C13.8504 41.9808 13.0002 41.9858 12.2305 42.3112C11.4605 42.6366 10.863 43.244 10.5476 44.0212L0.231476 69.4504C-0.419499 71.055 0.349855 72.8926 1.94635 73.5471L10.383 77.0046C10.7682 77.1625 11.1668 77.2372 11.5593 77.2372C12.7931 77.2372 13.9649 76.4983 14.4588 75.281L14.5364 75.0899L16.4816 75.887C16.4826 75.8874 16.4837 75.888 16.485 75.8885C18.3455 76.6509 20.0598 77.7388 21.5435 79.0888C21.8133 79.3344 22.0754 79.5885 22.3296 79.8509C22.5838 80.1132 22.8295 80.384 23.0669 80.6626C23.1855 80.8018 23.3022 80.9433 23.4163 81.0865C25.5782 83.796 28.4125 85.9215 31.6121 87.2328L33.8005 88.1296H17.7706C16.6436 88.1296 15.7264 87.2078 15.7264 86.075V82.0804C15.7264 81.2085 15.0232 80.5017 14.1557 80.5017C13.2881 80.5017 12.585 81.2085 12.585 82.0804V86.075C12.585 88.9489 14.9111 91.287 17.7706 91.287H41.505L61.7391 99.5794C62.4357 99.8648 63.1562 100 63.8659 100C66.0957 100 68.2137 98.6644 69.1063 96.4643C69.4724 95.5619 69.5899 94.6187 69.4913 93.712C70.5438 93.8638 71.635 93.7245 72.6242 93.2952C73.6294 92.8588 74.4626 92.1637 75.0543 91.2868H104.814C107.674 91.2868 110 88.9489 110 86.0748V13.6864C110 13.6842 110 13.6825 110 13.6804ZM54.6276 3.1574H67.9569L70.0175 12.1077H52.5671L54.6276 3.1574ZM49.3427 12.1077H16.4556L19.9341 3.1574H51.4032L49.3427 12.1077ZM70.4229 37.5537H70.4227L62.8684 30.8273C62.4191 30.4274 61.8558 30.2275 61.2927 30.2275C60.7294 30.2275 60.1658 30.4274 59.7166 30.8273L52.1625 37.5537V15.2651H70.4229V37.5537ZM11.5554 74.0753L3.14582 70.6289L13.451 45.2274L21.8606 48.6739L11.5554 74.0753ZM74.3079 83.6025L72.5051 82.8636C72.5043 82.8632 72.5034 82.863 72.5026 82.8625C72.5019 82.8623 72.5013 82.8619 72.5006 82.8617C72.5004 82.8617 72.5002 82.8614 72.5 82.8614L53.7257 75.1675C52.9226 74.8384 52.0059 75.2258 51.6782 76.0334C51.3506 76.8407 51.7363 77.7621 52.5398 78.0914L71.3145 85.7856C71.3929 85.8178 71.4687 85.8534 71.542 85.8925C71.5626 85.9035 71.5817 85.9169 71.6019 85.9284C71.6535 85.9577 71.7053 85.9871 71.7541 86.0197C71.7775 86.0355 71.799 86.0536 71.8217 86.07C71.8649 86.1011 71.909 86.1318 71.9498 86.1655C71.9745 86.1858 71.9968 86.2084 72.0207 86.2296C72.0572 86.2622 72.0946 86.2937 72.129 86.3283C72.1528 86.352 72.1741 86.3782 72.1968 86.4028C72.2284 86.4369 72.2609 86.4704 72.2905 86.5062C72.3131 86.5336 72.3328 86.5628 72.3543 86.5911C72.3812 86.6265 72.4091 86.6613 72.4338 86.698C72.4547 86.7286 72.4725 86.761 72.4918 86.7923C72.5142 86.8286 72.5378 86.8642 72.5582 86.9016C72.5767 86.9353 72.5922 86.9705 72.6091 87.0048C72.6272 87.0417 72.6467 87.078 72.6631 87.1158C72.6787 87.1521 72.6914 87.1897 72.7054 87.2266C72.7196 87.2639 72.735 87.3006 72.7475 87.3386C72.7599 87.3769 72.7694 87.4159 72.7799 87.4546C72.7905 87.4928 72.8023 87.5304 72.8111 87.569C72.8199 87.6081 72.8255 87.6479 72.8326 87.6872C72.8397 87.7265 72.8478 87.7653 72.853 87.8051C72.8581 87.8448 72.8601 87.885 72.8633 87.9249C72.8665 87.9651 72.8712 88.005 72.8725 88.0452C72.8738 88.0847 72.8719 88.1246 72.8715 88.1644C72.871 88.2054 72.8717 88.2464 72.8691 88.2877C72.8667 88.3268 72.8609 88.3658 72.8566 88.4049C72.8521 88.447 72.8487 88.4891 72.8418 88.531C72.8356 88.5695 72.8259 88.6077 72.818 88.6461C72.8089 88.6887 72.8014 88.7312 72.79 88.7735C72.7801 88.8109 72.7668 88.848 72.755 88.8852C72.7417 88.9275 72.7294 88.9698 72.7138 89.0115C72.7004 89.0402 72.6873 89.0691 72.6751 89.0983C72.6723 89.105 72.6708 89.1119 72.6682 89.1184C72.4229 89.6878 71.97 90.1402 71.3785 90.3969C70.7275 90.6792 69.9822 90.6891 69.3334 90.4231L66.007 89.0599C65.9915 89.0536 65.9758 89.0493 65.9604 89.0434C65.9447 89.0363 65.9299 89.0281 65.914 89.0216L50.6438 82.7636C49.84 82.4345 48.9237 82.8219 48.5963 83.6295C48.2687 84.4369 48.6543 85.3583 49.4576 85.6876L64.7278 91.9456C64.7441 91.9523 64.7607 91.9571 64.7772 91.9631C64.7921 91.9696 64.8058 91.9776 64.8211 91.9836C66.1026 92.509 66.7203 93.9843 66.1978 95.2723C65.6751 96.5608 64.2079 97.1818 62.9257 96.656L42.4093 88.2479C42.4084 88.2475 42.4076 88.2471 42.4067 88.2467L32.7989 84.3091C31.1077 83.6159 29.5372 82.6539 28.1508 81.4704C27.3189 80.7602 26.5534 79.9705 25.8676 79.1111C25.192 78.2644 24.4507 77.4747 23.6532 76.749C21.8986 75.1526 19.8716 73.8662 17.6718 72.9645C17.6716 72.9645 17.6714 72.9643 17.6712 72.9643L15.7234 72.1662L19.6028 62.6035L23.2689 53.5668L23.5394 53.6776C23.794 53.7819 24.1571 53.93 25.1342 53.9672C26.3549 54.0227 28.3744 53.8946 31.9924 53.3809C34.4534 53.0315 37.4722 52.5262 40.9962 51.8745C41.083 51.8586 41.1692 51.8426 41.2568 51.8264C41.4216 51.7957 41.5881 51.7646 41.7553 51.7335C41.8853 51.7093 42.0159 51.6847 42.1476 51.6599C42.2975 51.6316 42.4482 51.6033 42.5998 51.5746C42.7608 51.5442 42.9236 51.5133 43.0873 51.482C43.2184 51.4569 43.3492 51.4321 43.4815 51.4068C43.6811 51.3686 43.8842 51.3295 44.0878 51.2902C44.1927 51.2699 44.2964 51.2501 44.4022 51.2298C44.7141 51.1693 45.0301 51.108 45.352 51.0451C54.4315 49.2701 63.1949 47.2945 63.5887 47.2056C63.628 47.1974 63.6674 47.1926 63.7067 47.1868C64.7156 47.0367 65.7041 47.6232 65.9935 48.5694C66.0951 48.902 66.1069 49.2412 66.0429 49.5604C65.9022 50.2628 65.3943 50.8689 64.6683 51.0946L49.096 55.9389C48.462 56.1362 48.0199 56.7121 47.9913 57.3785C47.9625 58.0447 48.3531 58.6573 48.9676 58.909L77.4781 70.5935C78.099 70.8479 78.5841 71.3301 78.8441 71.9513C79.1041 72.5726 79.1079 73.2584 78.8546 73.8822C78.6013 74.5063 78.1218 74.9938 77.5037 75.2551C77.1947 75.3856 76.8697 75.4516 76.5442 75.4536C76.5395 75.4536 76.5347 75.4529 76.53 75.4529C76.4535 75.4529 76.3773 75.4499 76.301 75.4428C76.2784 75.4406 76.2561 75.4359 76.2335 75.4333C76.1753 75.4261 76.1171 75.4194 76.0593 75.4082C76.0228 75.4011 75.9867 75.3903 75.9504 75.3817C75.907 75.3713 75.8634 75.3624 75.8204 75.3497C75.7759 75.3365 75.7323 75.319 75.6885 75.3033C75.6537 75.2908 75.6182 75.2804 75.5838 75.2664L56.8074 67.5713C56.0041 67.242 55.0876 67.6296 54.76 68.4372C54.4323 69.2446 54.818 70.166 55.6215 70.4953L78.3852 79.8243C78.5405 79.8878 78.6873 79.9658 78.8241 80.0564C79.2347 80.3285 79.5563 80.7161 79.7512 81.1821C79.9787 81.7256 80.01 82.3186 79.8446 82.8763C79.821 82.956 79.7933 83.035 79.7617 83.113C79.729 83.1936 79.6927 83.2715 79.653 83.3466C79.5604 83.5216 79.4476 83.6796 79.3217 83.8237C79.2435 83.913 79.1599 83.9964 79.071 84.0728C79.0568 84.0849 79.0439 84.0988 79.0295 84.1104C78.4563 84.5816 77.69 84.7841 76.9412 84.6321C76.7893 84.6012 76.6383 84.5574 76.4896 84.4965L74.3079 83.6025Z" fill="#408858"></path>
</svg>
