<?xml version="1.0" encoding="UTF-8"?>
<svg xmlns="http://www.w3.org/2000/svg" width="109" height="106" viewBox="0 0 109 106" fill="none">
  <path d="M69.3998 26.8793C72.3288 26.8793 74.7117 24.4964 74.7117 21.5674C74.7117 18.6385 72.3288 16.2554 69.3998 16.2554C66.4708 16.2554 64.088 18.6385 64.088 21.5674C64.088 22.7637 64.4857 23.8685 65.1556 24.7575L56.428 36.9538C55.9073 36.7827 55.3516 36.6888 54.7741 36.6888C53.3784 36.6888 52.1074 37.2308 51.1585 38.1143L45.3411 34.8133C45.4187 34.453 45.4603 34.0794 45.4603 33.6963C45.4603 30.7674 43.0774 28.3845 40.1485 28.3845C37.2195 28.3845 34.8366 30.7674 34.8366 33.6963C34.8366 34.0794 34.8783 34.453 34.9558 34.8133L29.1385 38.1143C28.1896 37.2308 26.9185 36.689 25.5228 36.689C22.5938 36.689 20.2109 39.0721 20.2109 42.0011C20.2109 44.9301 22.5938 47.3132 25.5228 47.3132C28.4518 47.3132 30.8347 44.9301 30.8347 42.0011C30.8347 41.618 30.793 41.2445 30.7155 40.8841L36.5328 37.5831C37.4817 38.4666 38.7527 39.0086 40.1485 39.0086C41.5442 39.0086 42.815 38.4666 43.7641 37.5833L49.5815 40.8843C49.5039 41.2447 49.4623 41.6182 49.4623 42.0013C49.4623 44.9303 51.8452 47.3134 54.7741 47.3134C57.7033 47.3134 60.0862 44.9303 60.0862 42.0013C60.0862 40.8049 59.6882 39.6998 59.0183 38.8108L67.7459 26.6146C68.2665 26.7854 68.8223 26.8793 69.3998 26.8793ZM69.3998 19.4425C70.5714 19.4425 71.5246 20.3956 71.5246 21.5674C71.5246 22.739 70.5714 23.6922 69.3998 23.6922C68.2282 23.6922 67.2751 22.739 67.2751 21.5674C67.2749 20.3956 68.228 19.4425 69.3998 19.4425ZM25.5222 44.1256C24.3506 44.1256 23.3974 43.1725 23.3974 42.0007C23.3974 40.8289 24.3506 39.8757 25.5222 39.8757C26.6937 39.8757 27.6469 40.8289 27.6469 42.0007C27.6469 43.1725 26.6937 44.1256 25.5222 44.1256ZM40.148 35.8211C38.9765 35.8211 38.0233 34.8679 38.0233 33.6961C38.0233 32.5245 38.9765 31.5714 40.148 31.5714C41.3196 31.5714 42.2728 32.5245 42.2728 33.6961C42.273 34.8679 41.3196 35.8211 40.148 35.8211ZM54.7739 44.1256C53.6023 44.1256 52.6492 43.1725 52.6492 42.0007C52.6492 40.8289 53.6023 39.8757 54.7739 39.8757C55.9457 39.8757 56.8989 40.8289 56.8989 42.0007C56.8989 43.1725 55.9455 44.1256 54.7739 44.1256Z" fill="#408858"></path>
  <path d="M88.9834 78.7017H77.8315H17.0889H4.50764C3.77949 78.7017 3.18712 78.1093 3.18712 77.3811V11.6375C3.18712 10.9094 3.77949 10.317 4.50764 10.317H12.0199C12.9 10.317 13.6134 9.60372 13.6134 8.72344C13.6134 7.84316 12.9 7.12988 12.0199 7.12988H4.50764C2.02212 7.12988 0 9.152 0 11.6375V77.3811C0 79.8667 2.02212 81.8888 4.50764 81.8888H15.4953V85.3959C15.4953 87.3938 17.1208 89.0192 19.1187 89.0192H35.07L27.5611 103.68C27.16 104.463 27.4695 105.423 28.2529 105.824C28.4854 105.944 28.7335 106 28.9781 106C29.5571 106 30.1157 105.683 30.3976 105.132L38.6508 89.0192H56.2696L64.5227 105.132C64.8049 105.683 65.3633 106 65.9423 106C66.1868 106 66.435 105.943 66.6674 105.824C67.4508 105.423 67.7606 104.463 67.3593 103.68L59.8504 89.0192H75.8017C77.7996 89.0192 79.425 87.394 79.425 85.3959V81.8888H88.9834C89.8635 81.8888 90.577 81.1755 90.577 80.2952C90.577 79.4149 89.8635 78.7017 88.9834 78.7017ZM76.2379 85.3959C76.2379 85.6364 76.0422 85.8321 75.8017 85.8321H19.1187C18.8781 85.8321 18.6824 85.6364 18.6824 85.3959V81.8888H76.2379V85.3959Z" fill="#408858"></path>
  <path d="M18.3943 10.3173H40.2095H54.7111H90.4127C91.1409 10.3173 91.7333 10.9097 91.7333 11.6379V26.7896C91.7333 27.6699 92.4467 28.3832 93.3268 28.3832C94.2069 28.3832 94.9204 27.6699 94.9204 26.7896V11.6379C94.9204 9.15233 92.8982 7.13021 90.4127 7.13021H56.3049V3.99792C56.3049 1.7935 54.5114 0 52.3067 0H42.6141C40.4097 0 38.6159 1.7935 38.6159 3.99792V7.13021H18.3943C17.5143 7.13021 16.8008 7.84349 16.8008 8.72377C16.8008 9.60405 17.5143 10.3173 18.3943 10.3173ZM41.8031 3.99792C41.8031 3.55087 42.1668 3.18712 42.6141 3.18712H52.3067C52.7538 3.18712 53.1177 3.55087 53.1177 3.99792V7.13021H41.8033V3.99792H41.8031Z" fill="#408858"></path>
  <path d="M22.2889 55.46C21.4088 55.46 20.6953 56.1732 20.6953 57.0535V71.1346C20.6953 72.0149 21.4088 72.7282 22.2889 72.7282H28.7538C29.6339 72.7282 30.3474 72.0149 30.3474 71.1346V57.0535C30.3474 56.1732 29.6339 55.46 28.7538 55.46H22.2889ZM27.1603 69.5413H23.8824V58.6473H27.1603V69.5413Z" fill="#408858"></path>
  <path d="M36.9139 47.3164C36.0338 47.3164 35.3203 48.0297 35.3203 48.91V71.135C35.3203 72.0153 36.0338 72.7285 36.9139 72.7285H43.3788C44.2589 72.7285 44.9724 72.0153 44.9724 71.135V48.91C44.9724 48.0297 44.2589 47.3164 43.3788 47.3164H36.9139ZM41.7855 69.5414H38.5076V50.5035H41.7855V69.5414Z" fill="#408858"></path>
  <path d="M51.5389 55.46C50.6588 55.46 49.9453 56.1732 49.9453 57.0535V71.1346C49.9453 72.0149 50.6588 72.7282 51.5389 72.7282H58.0038C58.8839 72.7282 59.5974 72.0149 59.5974 71.1346V57.0535C59.5974 56.1732 58.8839 55.46 58.0038 55.46H51.5389ZM56.4103 69.5413H53.1324V58.6473H56.4103V69.5413Z" fill="#408858"></path>
  <path d="M66.1678 64.8623C65.2877 64.8623 64.5742 65.5756 64.5742 66.4559V71.1339C64.5742 72.0142 65.2877 72.7275 66.1678 72.7275H72.6327C73.5128 72.7275 74.2263 72.0142 74.2263 71.1339C74.2263 70.2536 73.5128 69.5404 72.6327 69.5404H67.7613V66.4559C67.7613 65.5756 67.0478 64.8623 66.1678 64.8623Z" fill="#408858"></path>
  <path d="M107.974 80.2008L98.8318 64.366C101.148 61.8972 102.835 58.8807 103.736 55.5185C105.175 50.1448 104.436 44.5319 101.655 39.7138C95.9124 29.7673 83.1489 26.3479 73.2029 32.0901C63.2568 37.8322 59.837 50.5957 65.5794 60.5419C68.3611 65.3599 72.8526 68.8063 78.2263 70.2464C80.0208 70.7272 81.8415 70.965 83.6507 70.965C85.232 70.965 86.8041 70.7831 88.3415 70.4232L97.4818 86.2585C98.6021 88.1999 100.642 89.2862 102.738 89.286C103.765 89.286 104.805 89.0249 105.757 88.4759C107.625 87.3971 108.787 85.3856 108.787 83.2265C108.787 82.1686 108.506 81.1226 107.974 80.2008ZM79.0511 67.1679C74.4997 65.9483 70.6953 63.0291 68.3392 58.9483C63.4757 50.5241 66.3723 39.7138 74.7963 34.8501C77.5676 33.2502 80.596 32.4904 83.5872 32.4904C89.6884 32.4904 95.6309 35.6547 98.8945 41.3074C101.25 45.3882 101.876 50.1421 100.657 54.6937C99.4372 59.2453 96.518 63.0493 92.4372 65.4054C88.3566 67.7615 83.6027 68.387 79.0511 67.1679ZM104.164 85.7154C102.793 86.5071 101.033 86.0358 100.242 84.6653L91.4483 69.4301C92.3297 69.0704 93.1927 68.6497 94.0312 68.1656C94.8702 67.6812 95.6649 67.1419 96.4173 66.5581L105.214 81.794C105.466 82.2319 105.6 82.7274 105.6 83.2267C105.6 84.2504 105.049 85.2042 104.164 85.7154Z" fill="#408858"></path>
  <path d="M98.0658 54.6178C99.1909 50.9939 98.9229 47.1141 97.3113 43.6932C96.9361 42.8969 95.9868 42.5557 95.1906 42.9307C94.3943 43.3059 94.053 44.2552 94.4283 45.0514C95.6995 47.7498 95.9105 50.8113 95.0221 53.6725C94.1289 56.5494 92.1992 58.9638 89.5885 60.4711C86.8259 62.0663 83.6072 62.4896 80.5261 61.6641C77.4448 60.8384 74.8691 58.8622 73.2743 56.0996C69.9816 50.3966 71.9427 43.0781 77.6458 39.7854C81.8156 37.3783 86.9904 37.7 90.83 40.6049C91.532 41.1361 92.5313 40.9978 93.0623 40.2958C93.5932 39.594 93.4549 38.5945 92.7529 38.0635C87.8891 34.3833 81.3335 33.9759 76.052 37.0252C72.5521 39.0458 70.0485 42.3086 69.0025 46.2121C67.9565 50.1157 68.4934 54.1931 70.5141 57.693C72.5347 61.1931 75.7974 63.6964 79.701 64.7427C81.0046 65.092 82.3274 65.2647 83.6416 65.2647C86.2631 65.2647 88.8508 64.5771 91.1819 63.2311C94.4895 61.3218 96.9342 58.263 98.0658 54.6178Z" fill="#408858"></path>
</svg>
