<?xml version="1.0" encoding="UTF-8"?>
<svg xmlns="http://www.w3.org/2000/svg" width="107" height="107" viewBox="0 0 107 107" fill="none">
  <path d="M62.3883 39.7041L101.649 47.5028C104.813 48.1712 106.952 50.845 106.952 54.0091V99.4641C106.952 103.163 103.966 106.149 100.268 106.149H60.1602C61.4079 106.149 62.3883 105.168 62.3883 103.92V101.692H100.268C101.471 101.692 102.496 100.712 102.496 99.4641V54.0091C102.496 52.9841 101.783 52.0483 100.758 51.8254L62.3883 44.2496V39.7041Z" fill="#408858"></path>
  <path d="M86.8987 61.5845C88.1465 61.5845 89.1269 62.5649 89.1269 63.8127C89.1269 65.0604 88.1465 66.0408 86.8987 66.0408H77.986C76.7382 66.0408 75.7578 65.0604 75.7578 63.8127C75.7578 62.5649 76.7382 61.5845 77.986 61.5845H86.8987Z" fill="#408858"></path>
  <path d="M86.8987 74.9531C88.1465 74.9531 89.1269 75.9335 89.1269 77.1813C89.1269 78.4291 88.1465 79.4095 86.8987 79.4095H77.986C76.7382 79.4095 75.7578 78.4291 75.7578 77.1813C75.7578 75.9335 76.7382 74.9531 77.986 74.9531H86.8987Z" fill="#408858"></path>
  <path d="M86.8987 88.3232C88.1465 88.3232 89.1269 89.3036 89.1269 90.5514C89.1269 91.7992 88.1465 92.7796 86.8987 92.7796H77.986C76.7382 92.7796 75.7578 91.7992 75.7578 90.5514C75.7578 89.3036 76.7382 88.3232 77.986 88.3232H86.8987Z" fill="#408858"></path>
  <path d="M62.39 103.92C62.39 105.168 61.4096 106.148 60.1618 106.148C58.914 106.148 57.9336 105.168 57.9336 103.92V101.692V41.5307C57.9336 40.8623 58.2455 40.2384 58.7357 39.7927C59.2705 39.3917 59.939 39.2134 60.6074 39.3471L62.39 39.7036V44.2491V101.692V103.92Z" fill="#408858"></path>
  <path d="M57.9332 101.692V103.921C57.9332 105.168 58.9136 106.149 60.1614 106.149H42.3359C43.5837 106.149 44.5641 105.168 44.5641 103.921V101.692H57.9332Z" fill="#408858"></path>
  <path d="M46.7933 21.4775C48.0411 21.4775 49.0215 22.4579 49.0215 23.7057C49.0215 24.9535 48.0411 25.9339 46.7933 25.9339H37.8805C36.6327 25.9339 35.6523 24.9535 35.6523 23.7057C35.6523 22.4579 36.6327 21.4775 37.8805 21.4775H46.7933Z" fill="#408858"></path>
  <path d="M49.0215 37.0744C49.0215 38.3222 48.0411 39.3026 46.7933 39.3026H37.8805C36.6327 39.3026 35.6523 38.3222 35.6523 37.0744C35.6523 35.8266 36.6327 34.8462 37.8805 34.8462H46.7933C48.0411 34.8462 49.0215 35.8266 49.0215 37.0744Z" fill="#408858"></path>
  <path d="M46.7933 48.2153C48.0411 48.2153 49.0215 49.1957 49.0215 50.4435C49.0215 51.6913 48.0411 52.6717 46.7933 52.6717H37.8805C36.6327 52.6717 35.6523 51.6913 35.6523 50.4435C35.6523 49.1957 36.6327 48.2153 37.8805 48.2153H46.7933Z" fill="#408858"></path>
  <path d="M46.7933 61.5845C48.0411 61.5845 49.0215 62.5649 49.0215 63.8127C49.0215 65.0604 48.0411 66.0408 46.7933 66.0408H37.8805C36.6327 66.0408 35.6523 65.0604 35.6523 63.8127C35.6523 62.5649 36.6327 61.5845 37.8805 61.5845H46.7933Z" fill="#408858"></path>
  <path d="M26.7363 63.8127C26.7363 65.0604 25.7559 66.0408 24.5081 66.0408H15.5954C14.3476 66.0408 13.3672 65.0604 13.3672 63.8127C13.3672 62.5649 14.3476 61.5845 15.5954 61.5845H24.5081C25.7559 61.5845 26.7363 62.5649 26.7363 63.8127Z" fill="#408858"></path>
  <path d="M24.5081 21.4775C25.7559 21.4775 26.7363 22.4579 26.7363 23.7057C26.7363 24.9535 25.7559 25.9339 24.5081 25.9339H15.5954C14.3476 25.9339 13.3672 24.9535 13.3672 23.7057C13.3672 22.4579 14.3476 21.4775 15.5954 21.4775H24.5081Z" fill="#408858"></path>
  <path d="M24.5081 34.8462C25.7559 34.8462 26.7363 35.8266 26.7363 37.0744C26.7363 38.3222 25.7559 39.3026 24.5081 39.3026H15.5954C14.3476 39.3026 13.3672 38.3222 13.3672 37.0744C13.3672 35.8266 14.3476 34.8462 15.5954 34.8462H24.5081Z" fill="#408858"></path>
  <path d="M24.5081 48.2153C25.7559 48.2153 26.7363 49.1957 26.7363 50.4435C26.7363 51.6913 25.7559 52.6717 24.5081 52.6717H15.5954C14.3476 52.6717 13.3672 51.6913 13.3672 50.4435C13.3672 49.1957 14.3476 48.2153 15.5954 48.2153H24.5081Z" fill="#408858"></path>
  <path d="M40.1061 81.6377C40.1061 80.3899 39.0811 79.4095 37.8779 79.4095H24.5088C23.261 79.4095 22.2806 80.3899 22.2806 81.6377V101.691H17.8242V81.6377C17.8242 77.9389 20.81 74.9531 24.5088 74.9531H37.8779C41.5767 74.9531 44.5625 77.9389 44.5625 81.6377V101.691H40.1061V81.6377Z" fill="#408858"></path>
  <path d="M22.2806 101.692H40.1061H44.5625V103.921C44.5625 105.168 43.5821 106.149 42.3343 106.149H20.0524C18.8046 106.149 17.8242 105.168 17.8242 103.921V101.692H22.2806Z" fill="#408858"></path>
  <path d="M7.79865 0.086761L56.7742 7.5289C60.0273 8.06367 62.3892 10.8266 62.3892 14.1243V39.7039L60.6067 39.3474C59.9382 39.2137 59.2698 39.392 58.735 39.793C58.2448 40.2387 57.9328 40.8626 57.9328 41.531V14.1243C57.9328 13.0102 57.1307 12.0744 56.0612 11.8961L7.08563 4.49857C6.95194 4.45401 6.81825 4.45401 6.68456 4.45401C6.14979 4.45401 5.65959 4.63226 5.25852 4.98877C4.72375 5.43441 4.45637 6.01374 4.45637 6.68219V99.4639C4.45637 100.712 5.48134 101.692 6.68456 101.692H17.8255V103.92C17.8255 105.168 18.8059 106.148 20.0537 106.148H6.68456C2.98577 106.148 0 103.163 0 99.4639V6.68219C0 4.72139 0.846711 2.84971 2.36188 1.60193C3.87704 0.30958 5.83785 -0.225185 7.79865 0.086761Z" fill="#408858"></path>
</svg>
