<?xml version="1.0" encoding="UTF-8"?>
<svg xmlns="http://www.w3.org/2000/svg" width="65" height="80" viewBox="0 0 65 80" fill="none">
  <path d="M32.5 80C32.3034 80.0001 32.1101 79.9501 31.9385 79.8548C11.939 68.7298 3.56882e-07 50.847 3.56882e-07 32.0051V14.0617C-0.000124503 13.9042 0.0325148 13.7483 0.0958704 13.6039C0.159226 13.4595 0.25193 13.3297 0.368168 13.2226C0.484109 13.1147 0.621529 13.0322 0.771549 12.9805C0.921569 12.9287 1.08085 12.9087 1.23912 12.9219C14.5852 13.9508 24.505 9.86141 31.5773 0.431861C31.6891 0.296821 31.8296 0.188062 31.9888 0.113394C32.1479 0.038725 32.3217 0 32.4977 0C32.6737 0 32.8475 0.038725 33.0066 0.113394C33.1658 0.188062 33.3063 0.296821 33.4181 0.431861C40.4961 9.86141 50.4298 13.9485 63.7609 12.9219C63.9192 12.9097 64.0784 12.9303 64.2284 12.9823C64.3784 13.0343 64.5159 13.1166 64.6323 13.224C64.7487 13.3314 64.8415 13.4615 64.9048 13.6063C64.968 13.7511 65.0005 13.9073 65 14.0652V32.0051C64.9085 41.5974 61.9622 50.9482 56.5321 58.8795C50.4784 67.6086 42.4369 74.7948 33.0615 79.8537C32.89 79.9493 32.6967 79.9997 32.5 80V80ZM2.30105 15.2839V32.0051C2.30105 49.8273 13.5762 66.8103 32.5 77.5431C41.3229 72.6879 48.8928 65.8663 54.6154 57.614C59.7943 50.0575 62.6069 41.147 62.6989 32.0051V15.2839C49.698 16.0041 39.784 11.9684 32.5 2.98246C25.2183 11.9661 15.3146 16.0041 2.30105 15.2839V15.2839Z" fill="#408858"></path>
  <path d="M32.4992 72.0137C32.2808 72.0136 32.0669 71.9518 31.8825 71.8354C16.0053 61.8044 6.90235 47.2863 6.90235 32.0044V21.0075C6.9019 20.7148 7.01439 20.4332 7.21665 20.2205C7.41892 20.0078 7.69555 19.8803 7.98959 19.8642C16.7693 19.5878 25.1719 16.2538 31.7284 10.4449C31.9398 10.2553 32.2144 10.1504 32.4992 10.1504C32.784 10.1504 33.0586 10.2553 33.27 10.4449C39.8256 16.253 48.2269 19.587 57.0054 19.8642C57.2994 19.8803 57.576 20.0078 57.7783 20.2205C57.9806 20.4332 58.093 20.7148 58.0926 21.0075V32.0021C57.9995 40.2433 55.4547 48.2728 50.7787 55.0798C46.1195 61.8177 40.1053 67.5229 33.1159 71.8354C32.9315 71.9518 32.7176 72.0136 32.4992 72.0137ZM9.20339 22.081V32.0044C9.20339 46.2951 17.6828 59.9261 32.4992 69.5111C38.9616 65.4278 44.5281 60.0905 48.8654 53.8188C53.2902 47.3866 55.7012 39.7975 55.795 32.0067V22.0833C47.2233 21.5885 39.0464 18.3357 32.4992 12.816C25.9517 18.3349 17.7748 21.5869 9.20339 22.081V22.081Z" fill="#408858"></path>
  <path d="M27.6392 48.1174C27.3341 48.1174 27.0415 47.9969 26.8258 47.7825L20.1804 41.179C19.9708 40.9634 19.8548 40.6746 19.8575 40.3749C19.8601 40.0751 19.9811 39.7884 20.1944 39.5764C20.4077 39.3644 20.6963 39.2442 20.9979 39.2416C21.2996 39.239 21.5902 39.3542 21.8072 39.5625L27.6392 45.3599L43.1909 29.9043C43.4074 29.6899 43.7007 29.5698 44.0063 29.5703C44.312 29.5709 44.6049 29.692 44.8206 29.9071C45.0363 30.1223 45.1572 30.4137 45.1567 30.7174C45.1561 31.0211 45.0342 31.3122 44.8177 31.5266L28.4527 47.7825C28.2369 47.9969 27.9443 48.1174 27.6392 48.1174Z" fill="#408858"></path>
</svg>
