<?xml version="1.0" encoding="UTF-8"?>
<svg xmlns="http://www.w3.org/2000/svg" width="80" height="80" viewBox="0 0 80 80" fill="none">
  <path d="M79.2752 37.628C78.8364 37.4456 78.3314 37.5463 77.9955 37.8832L74.4788 41.4112V17.4232C74.4788 16.7725 73.953 16.2452 73.3045 16.2452H64.2825L67.5575 12.9597C67.558 12.9592 67.5584 12.9586 67.5589 12.9581L70.7145 9.79234C71.3906 9.11407 71.763 8.2118 71.763 7.25248C71.763 6.29315 71.3906 5.3912 70.7145 4.71261L67.0655 1.05181C66.3894 0.373542 65.49 0 64.5337 0C63.5775 0 62.6783 0.373542 62.002 1.05181L58.8448 4.21916L55.0298 8.04643L46.8575 16.2451H10.4094V4.59129C10.4094 3.94061 9.88359 3.41329 9.23516 3.41329C4.14297 3.4136 0 7.56959 0 12.6785V62.7117C0 62.7987 0.01 62.8834 0.0278125 62.9649C0.19 65.1326 1.12484 67.1467 2.68719 68.6757C4.35719 70.3097 6.56172 71.2096 8.89484 71.2096H44.7758L38.0181 77.989C37.6823 78.326 37.5819 78.8325 37.7636 79.2728C37.9453 79.713 38.3736 80 38.8484 80H78.8258C79.4742 80 80 79.4727 80 78.822V38.7163C80 38.24 79.7137 37.8103 79.2752 37.628ZM63.663 2.71794C64.143 2.23608 64.925 2.23608 65.405 2.71794L69.0542 6.37889C69.5345 6.8606 69.5345 7.64483 69.0542 8.12669L66.7275 10.461L61.3359 5.0523L63.663 2.71794ZM59.6753 6.71826L65.0667 12.1269L62.9122 14.2883L57.5211 8.87973L59.6753 6.71826ZM77.6519 51.9529H75.4855C74.8369 51.9529 74.3113 52.4802 74.3113 53.1309C74.3113 53.7815 74.8369 54.3089 75.4855 54.3089H77.6519V57.8587H75.4855C74.8369 57.8587 74.3113 58.386 74.3113 59.0367C74.3113 59.6874 74.8369 60.2147 75.4855 60.2147H77.6519V63.7643H75.4855C74.8369 63.7643 74.3113 64.2917 74.3113 64.9423C74.3113 65.593 74.8369 66.1203 75.4855 66.1203H77.6519V69.6701H75.4855C74.8369 69.6701 74.3113 70.1976 74.3113 70.8481C74.3113 71.4988 74.8369 72.0261 75.4855 72.0261H77.6519V77.6445H41.6831L53.5437 65.7458C54.0023 65.2856 54.0023 64.5399 53.5437 64.0799C53.4911 64.0271 53.4345 63.9813 53.3753 63.9405C52.9181 63.6264 52.2891 63.6726 51.883 64.0799L47.1242 68.8539H8.895C5.33375 68.8539 2.46687 66.0647 2.35406 62.4984C2.36078 62.2746 2.37812 62.0526 2.40594 61.8331C2.40609 61.8319 2.40625 61.8306 2.40641 61.8294C2.41953 61.7251 2.43531 61.6214 2.45328 61.5182C2.45531 61.5065 2.4575 61.4947 2.45953 61.483C2.47594 61.3909 2.49438 61.2994 2.51453 61.2082C2.52016 61.1828 2.52609 61.1574 2.53203 61.1321C2.54984 61.055 2.56906 60.9784 2.58969 60.902C2.60094 60.8606 2.61266 60.8197 2.62469 60.7785C2.64188 60.7186 2.65969 60.6589 2.67859 60.5998C2.6975 60.5407 2.71766 60.4822 2.73813 60.4238C2.75234 60.3829 2.76641 60.342 2.78172 60.3014C2.81031 60.2242 2.84062 60.1479 2.87187 60.0722C2.88078 60.0504 2.88953 60.0283 2.89875 60.0065C2.93891 59.9125 2.98062 59.8195 3.02469 59.7276C3.02656 59.7237 3.02828 59.7198 3.03016 59.7159C3.94859 57.8091 5.715 56.3876 7.83484 55.9465C7.84078 55.9452 7.84672 55.9438 7.85266 55.9425C7.94984 55.9226 8.04797 55.9055 8.14672 55.8897C8.16312 55.887 8.17953 55.8837 8.19625 55.8812C8.28547 55.8676 8.37562 55.8569 8.46578 55.8468C8.49109 55.8439 8.51625 55.84 8.54172 55.8375C8.62875 55.8287 8.71656 55.8229 8.80437 55.8174C8.83219 55.8157 8.86 55.8127 8.88781 55.8113C9.00281 55.8055 9.11875 55.8026 9.23516 55.8026C9.88359 55.8026 10.4094 55.2752 10.4094 54.6246V46.0833C10.4094 45.4326 9.88359 44.9053 9.23516 44.9053C8.58672 44.9053 8.06094 45.4326 8.06094 46.0833V53.5207C6.07813 53.7723 4.23766 54.6595 2.78641 56.0813C2.63375 56.2308 2.48906 56.3863 2.34812 56.5443V12.6785C2.34812 9.27051 4.82094 6.43062 8.06078 5.86976V17.4232V41.3714V41.3716C8.06078 42.0221 8.58656 42.5496 9.235 42.5496C9.88344 42.5496 10.4092 42.0221 10.4092 41.3716V41.3714V18.6012H44.5092L38.018 25.1133C37.5594 25.5736 37.5594 26.3192 38.018 26.7793C38.4766 27.2392 39.22 27.2392 39.6784 26.7793L48.1742 18.2562C48.1745 18.2559 48.1747 18.2556 48.175 18.2554L55.8602 10.5455L61.2512 15.9543L60.6187 16.5888C60.6183 16.5893 60.6177 16.5898 60.6172 16.5902L36.9409 40.343L31.5497 34.9344L36.2166 30.2525C36.6752 29.7923 36.6752 29.0466 36.2166 28.5865C35.758 28.1266 35.0145 28.1266 34.5561 28.5865L29.0587 34.1014C29.0294 34.1309 29.0019 34.1621 28.9761 34.194C28.9675 34.2047 28.9598 34.2161 28.9517 34.2273C28.9352 34.2494 28.9189 34.2716 28.9037 34.2948C28.8952 34.3083 28.8873 34.3221 28.8792 34.3361C28.8662 34.358 28.8538 34.3803 28.8423 34.403C28.8348 34.4177 28.8281 34.4326 28.8212 34.448C28.8108 34.471 28.8011 34.4945 28.7922 34.518C28.7891 34.5263 28.785 34.5342 28.782 34.5425L26.4944 41.0438L24.9347 45.4766C24.9141 45.5356 24.8992 45.5954 24.8881 45.6558H20.9831C20.3347 45.6558 19.8089 46.1831 19.8089 46.8338C19.8089 47.4845 20.3347 48.0118 20.9831 48.0118H53.5009C54.1495 48.0118 54.6752 47.4845 54.6752 46.8338C54.6752 46.1831 54.1495 45.6558 53.5009 45.6558H30.1708L37.3317 43.1198C37.3377 43.1177 37.3433 43.1147 37.3492 43.1125C37.377 43.1021 37.4044 43.0905 37.4314 43.0781C37.4422 43.0731 37.453 43.0684 37.4634 43.0633C37.4916 43.0491 37.5192 43.0336 37.5464 43.017C37.5552 43.0117 37.5642 43.0068 37.5728 43.0013C37.6011 42.9832 37.6286 42.9633 37.6556 42.9422C37.6623 42.9371 37.6694 42.9325 37.6759 42.9272C37.7086 42.9009 37.7406 42.8725 37.7709 42.8421L61.9341 18.6014H72.1302V43.7674L55.3339 60.6178C54.8753 61.0781 54.8753 61.8237 55.3339 62.2838C55.3625 62.3125 55.3923 62.3395 55.4231 62.3647C55.6384 62.5407 55.9014 62.6288 56.1642 62.6288C56.427 62.6288 56.6902 62.5407 56.9053 62.3647C56.9361 62.3396 56.9659 62.3125 56.9945 62.2838C56.995 62.2833 56.9945 62.2838 56.995 62.2833L77.6519 41.5598V51.9529ZM34.7933 41.52L31.4298 42.7112L29.1889 40.463L30.3763 37.0888L34.7933 41.52Z" fill="#408858"></path>
</svg>
