<?xml version="1.0" encoding="UTF-8"?>
<svg xmlns="http://www.w3.org/2000/svg" width="92" height="80" viewBox="0 0 92 80" fill="none">
  <path d="M68.1305 68.8419L68.1302 68.8417C67.4969 69.4243 67.4503 70.4174 68.0266 71.0591L68.1305 68.8419ZM68.1305 68.8419L68.1358 68.8365M68.1305 68.8419L68.1358 68.8365M68.1358 68.8365C68.7672 68.2596 69.741 68.3076 70.3143 68.946L70.3144 68.9461C70.8906 69.5874 70.8436 70.5811 70.2101 71.1638L70.2101 71.1639C69.9135 71.4369 69.5415 71.571 69.1706 71.571C68.7503 71.571 68.332 71.3991 68.0266 71.0591L68.1358 68.8365Z" fill="#408858" stroke="white" stroke-width="0.5"></path>
  <mask id="path-2-inside-1_475_1641" fill="white">
    <path d="M62.4733 40.1707L66.2849 44.0282C66.9623 44.7138 67.8647 45.0913 68.826 45.0913C69.7873 45.0913 70.6899 44.7138 71.3671 44.0282L90.4254 24.7406C91.4406 23.713 92 22.343 92 20.8831C92 19.423 91.4408 18.053 90.4254 17.0254L75.1787 1.5951C73.077 -0.531971 69.6572 -0.531426 67.5553 1.5951L48.4972 20.8829C47.0962 22.301 47.0962 24.6082 48.4973 26.0263L52.309 29.8838C52.774 30.3544 53.4304 30.511 54.0246 30.3579L46.001 38.1129L37.9769 30.3575C38.1215 30.395 38.2706 30.4164 38.4223 30.4164C38.8988 30.4164 39.3559 30.2248 39.6928 29.8838L43.5045 26.0263C44.9055 24.6082 44.9056 22.301 43.5045 20.8827L24.4463 1.5951C23.4311 0.567659 22.0774 0.00175008 20.6347 0.00175008C19.192 0.00175008 17.8383 0.567477 16.8231 1.5951L1.57618 17.0252C-0.525395 19.1523 -0.525395 22.6132 1.57618 24.7404L20.6345 44.0281C21.3351 44.7369 22.2554 45.0915 23.1756 45.0915C24.0958 45.0915 25.0161 44.7371 25.7167 44.0281L29.5283 40.1705C29.8652 39.8296 30.0546 39.367 30.0546 38.8847C30.0546 38.731 30.0334 38.5801 29.9964 38.4339L37.4723 46.3561L23.3355 60.0195C20.6395 59.8813 17.8979 60.8513 15.8434 62.9307C13.9767 64.8198 12.9489 67.3314 12.9489 70.0031C12.9489 72.6745 13.9769 75.1863 15.8434 77.0753C17.7704 79.0255 20.3005 80 22.8315 80C25.362 80 27.893 79.0249 29.8194 77.0753C31.6861 75.1863 32.7139 72.6748 32.7139 70.0031C32.7139 69.8307 32.7093 69.6589 32.7008 69.488L46.0008 55.3939L59.3008 69.4878C59.2924 69.6587 59.2877 69.8306 59.2877 70.0029C59.2877 72.6745 60.3157 75.1861 62.1822 77.0752C64.1088 79.0249 66.6395 79.9998 69.1703 79.9998C71.701 79.9998 74.2316 79.0249 76.1582 77.0752C78.0247 75.1861 79.0527 72.6745 79.0527 70.0029C79.0527 67.3314 78.0247 64.8197 76.1582 62.9305C74.1037 60.8513 71.3621 59.8815 68.6663 60.0195L54.5295 46.3561L62.0052 38.4339C61.9682 38.5801 61.947 38.731 61.947 38.8847C61.947 39.3671 62.1364 39.8298 62.4733 40.1707ZM66.2849 8.02449L84.0727 26.0263L81.5314 28.5981L63.7439 10.5964L66.2849 8.02449ZM72.6378 4.16678L87.8843 19.5971C88.2209 19.9377 88.4063 20.3943 88.4063 20.8827C88.4063 21.3712 88.2209 21.828 87.8843 22.1686L86.6138 23.4544L68.826 5.45262L70.0966 4.16678C70.7971 3.45812 71.9371 3.45776 72.6378 4.16678ZM51.0384 23.4546L61.2026 13.168L78.9902 31.1698L68.826 41.4564L66.1884 38.787C68.8226 35.1237 68.4314 30.7703 65.0144 27.3119C61.597 23.8536 57.2955 23.4573 53.6756 26.1237L51.0384 23.4546ZM4.11745 19.5971L19.3641 4.16678C19.7007 3.82618 20.1519 3.6387 20.6347 3.6387C21.1175 3.6387 21.5687 3.82618 21.9052 4.16678L23.1758 5.45262L5.38817 23.4544L4.11763 22.1686C3.41686 21.4597 3.41686 20.3059 4.11745 19.5971ZM23.1758 41.4564L13.0116 31.17L16.1884 27.9549C16.8901 27.2448 16.8901 26.0934 16.1884 25.3831C15.4868 24.6731 14.349 24.6731 13.6472 25.3831L10.4703 28.5981L7.92908 26.0263L25.7167 8.02449L28.2579 10.5965L25.082 13.8107C24.3802 14.5208 24.3802 15.6723 25.082 16.3826C25.433 16.7375 25.8928 16.9152 26.3526 16.9152C26.8124 16.9152 27.2724 16.7375 27.6231 16.3826L30.7992 13.1682L40.9632 23.4546L38.3254 26.1243C36.8826 25.0621 35.3064 24.4669 33.693 24.3851C31.3154 24.2656 28.9982 25.2767 26.9872 27.3123C23.5702 30.7705 23.179 35.1241 25.8132 38.7874L23.1758 41.4564ZM27.2783 74.5033C24.8264 76.985 20.8365 76.985 18.3845 74.5033C17.1968 73.3013 16.5426 71.703 16.5426 70.0029C16.5426 68.3027 17.1968 66.7044 18.3845 65.5024C19.6105 64.2617 21.221 63.6414 22.8313 63.6414C24.4418 63.6414 26.0522 64.2617 27.2783 65.5024C28.4662 66.7044 29.1202 68.3029 29.1202 70.0029C29.1202 71.703 28.4662 73.3013 27.2783 74.5033ZM31.6017 65.3867C31.1408 64.4926 30.5442 63.6643 29.8196 62.9307C29.0865 62.1888 28.2655 61.5889 27.3908 61.1293L39.9545 48.9863L43.5165 52.7609L31.6017 65.3867ZM75.459 70.0028C75.459 71.703 74.8048 73.3013 73.6171 74.5033C71.1651 76.985 67.1754 76.985 64.7233 74.5033C63.5356 73.3013 62.8814 71.703 62.8814 70.0029C62.8814 68.3029 63.5356 66.7044 64.7233 65.5024C67.1754 63.0209 71.1653 63.0209 73.6173 65.5024C74.805 66.7046 75.459 68.3028 75.459 70.0028ZM62.1822 62.9307C61.4574 63.6643 60.8608 64.4926 60.3999 65.3867L28.3393 31.412C28.6243 30.9158 29.0133 30.4052 29.5285 29.884C30.0251 29.3814 30.5292 28.9806 31.0382 28.6802L64.6112 61.1293C63.7363 61.5889 62.9153 62.1888 62.1822 62.9307ZM48.6025 40.6275L60.9634 28.6803C61.4538 28.9687 61.9583 29.3626 62.4735 29.884C62.9885 30.4052 63.3777 30.916 63.6626 31.412L51.9309 43.8444L48.6025 40.6275Z"></path>
  </mask>
  <path d="M62.4733 40.1707L66.2849 44.0282C66.9623 44.7138 67.8647 45.0913 68.826 45.0913C69.7873 45.0913 70.6899 44.7138 71.3671 44.0282L90.4254 24.7406C91.4406 23.713 92 22.343 92 20.8831C92 19.423 91.4408 18.053 90.4254 17.0254L75.1787 1.5951C73.077 -0.531971 69.6572 -0.531426 67.5553 1.5951L48.4972 20.8829C47.0962 22.301 47.0962 24.6082 48.4973 26.0263L52.309 29.8838C52.774 30.3544 53.4304 30.511 54.0246 30.3579L46.001 38.1129L37.9769 30.3575C38.1215 30.395 38.2706 30.4164 38.4223 30.4164C38.8988 30.4164 39.3559 30.2248 39.6928 29.8838L43.5045 26.0263C44.9055 24.6082 44.9056 22.301 43.5045 20.8827L24.4463 1.5951C23.4311 0.567659 22.0774 0.00175008 20.6347 0.00175008C19.192 0.00175008 17.8383 0.567477 16.8231 1.5951L1.57618 17.0252C-0.525395 19.1523 -0.525395 22.6132 1.57618 24.7404L20.6345 44.0281C21.3351 44.7369 22.2554 45.0915 23.1756 45.0915C24.0958 45.0915 25.0161 44.7371 25.7167 44.0281L29.5283 40.1705C29.8652 39.8296 30.0546 39.367 30.0546 38.8847C30.0546 38.731 30.0334 38.5801 29.9964 38.4339L37.4723 46.3561L23.3355 60.0195C20.6395 59.8813 17.8979 60.8513 15.8434 62.9307C13.9767 64.8198 12.9489 67.3314 12.9489 70.0031C12.9489 72.6745 13.9769 75.1863 15.8434 77.0753C17.7704 79.0255 20.3005 80 22.8315 80C25.362 80 27.893 79.0249 29.8194 77.0753C31.6861 75.1863 32.7139 72.6748 32.7139 70.0031C32.7139 69.8307 32.7093 69.6589 32.7008 69.488L46.0008 55.3939L59.3008 69.4878C59.2924 69.6587 59.2877 69.8306 59.2877 70.0029C59.2877 72.6745 60.3157 75.1861 62.1822 77.0752C64.1088 79.0249 66.6395 79.9998 69.1703 79.9998C71.701 79.9998 74.2316 79.0249 76.1582 77.0752C78.0247 75.1861 79.0527 72.6745 79.0527 70.0029C79.0527 67.3314 78.0247 64.8197 76.1582 62.9305C74.1037 60.8513 71.3621 59.8815 68.6663 60.0195L54.5295 46.3561L62.0052 38.4339C61.9682 38.5801 61.947 38.731 61.947 38.8847C61.947 39.3671 62.1364 39.8298 62.4733 40.1707ZM66.2849 8.02449L84.0727 26.0263L81.5314 28.5981L63.7439 10.5964L66.2849 8.02449ZM72.6378 4.16678L87.8843 19.5971C88.2209 19.9377 88.4063 20.3943 88.4063 20.8827C88.4063 21.3712 88.2209 21.828 87.8843 22.1686L86.6138 23.4544L68.826 5.45262L70.0966 4.16678C70.7971 3.45812 71.9371 3.45776 72.6378 4.16678ZM51.0384 23.4546L61.2026 13.168L78.9902 31.1698L68.826 41.4564L66.1884 38.787C68.8226 35.1237 68.4314 30.7703 65.0144 27.3119C61.597 23.8536 57.2955 23.4573 53.6756 26.1237L51.0384 23.4546ZM4.11745 19.5971L19.3641 4.16678C19.7007 3.82618 20.1519 3.6387 20.6347 3.6387C21.1175 3.6387 21.5687 3.82618 21.9052 4.16678L23.1758 5.45262L5.38817 23.4544L4.11763 22.1686C3.41686 21.4597 3.41686 20.3059 4.11745 19.5971ZM23.1758 41.4564L13.0116 31.17L16.1884 27.9549C16.8901 27.2448 16.8901 26.0934 16.1884 25.3831C15.4868 24.6731 14.349 24.6731 13.6472 25.3831L10.4703 28.5981L7.92908 26.0263L25.7167 8.02449L28.2579 10.5965L25.082 13.8107C24.3802 14.5208 24.3802 15.6723 25.082 16.3826C25.433 16.7375 25.8928 16.9152 26.3526 16.9152C26.8124 16.9152 27.2724 16.7375 27.6231 16.3826L30.7992 13.1682L40.9632 23.4546L38.3254 26.1243C36.8826 25.0621 35.3064 24.4669 33.693 24.3851C31.3154 24.2656 28.9982 25.2767 26.9872 27.3123C23.5702 30.7705 23.179 35.1241 25.8132 38.7874L23.1758 41.4564ZM27.2783 74.5033C24.8264 76.985 20.8365 76.985 18.3845 74.5033C17.1968 73.3013 16.5426 71.703 16.5426 70.0029C16.5426 68.3027 17.1968 66.7044 18.3845 65.5024C19.6105 64.2617 21.221 63.6414 22.8313 63.6414C24.4418 63.6414 26.0522 64.2617 27.2783 65.5024C28.4662 66.7044 29.1202 68.3029 29.1202 70.0029C29.1202 71.703 28.4662 73.3013 27.2783 74.5033ZM31.6017 65.3867C31.1408 64.4926 30.5442 63.6643 29.8196 62.9307C29.0865 62.1888 28.2655 61.5889 27.3908 61.1293L39.9545 48.9863L43.5165 52.7609L31.6017 65.3867ZM75.459 70.0028C75.459 71.703 74.8048 73.3013 73.6171 74.5033C71.1651 76.985 67.1754 76.985 64.7233 74.5033C63.5356 73.3013 62.8814 71.703 62.8814 70.0029C62.8814 68.3029 63.5356 66.7044 64.7233 65.5024C67.1754 63.0209 71.1653 63.0209 73.6173 65.5024C74.805 66.7046 75.459 68.3028 75.459 70.0028ZM62.1822 62.9307C61.4574 63.6643 60.8608 64.4926 60.3999 65.3867L28.3393 31.412C28.6243 30.9158 29.0133 30.4052 29.5285 29.884C30.0251 29.3814 30.5292 28.9806 31.0382 28.6802L64.6112 61.1293C63.7363 61.5889 62.9153 62.1888 62.1822 62.9307ZM48.6025 40.6275L60.9634 28.6803C61.4538 28.9687 61.9583 29.3626 62.4735 29.884C62.9885 30.4052 63.3777 30.916 63.6626 31.412L51.9309 43.8444L48.6025 40.6275Z" fill="#408858" stroke="white" mask="url(#path-2-inside-1_475_1641)"></path>
  <path d="M21.7373 71.1123C21.7373 71.1123 21.7373 71.1123 21.7373 71.1123L21.7382 71.1132L21.7373 71.1123ZM21.7373 71.1123C21.1318 70.4993 21.1319 69.5045 21.7372 68.8918L21.7373 71.1123ZM21.7373 68.8918C22.3413 68.2809 23.3191 68.2809 23.9229 68.8917L21.7373 68.8918ZM22.8304 71.5713C22.4353 71.5713 22.0404 71.419 21.7382 71.1132L23.923 68.8918C24.5285 69.5048 24.5287 70.5 23.9233 71.1126C23.6209 71.4187 23.2256 71.5713 22.8304 71.5713Z" fill="#408858" stroke="white" stroke-width="0.5"></path>
  <path d="M20.634 19.3145H20.6353C21.4868 19.3145 22.1822 20.014 22.1822 20.883C22.1822 21.7519 21.4868 22.4515 20.6353 22.4515C19.7837 22.4515 19.0879 21.7518 19.0879 20.883C19.0879 20.0139 19.7827 19.3145 20.634 19.3145Z" fill="#408858" stroke="white" stroke-width="0.5"></path>
</svg>
