<?xml version="1.0" encoding="UTF-8"?>
<svg xmlns="http://www.w3.org/2000/svg" width="75" height="81" viewBox="0 0 75 81" fill="none">
  <path d="M74.3376 18.1518L38.0096 0.616484C37.6875 0.461172 37.3125 0.461172 36.9906 0.616484L0.662432 18.1518C0.257378 18.3472 0 18.7574 0 19.2071V61.7928C0 62.2425 0.257378 62.6527 0.662432 62.8481L36.9904 80.3834C37.1514 80.4611 37.3258 80.5 37.5 80.5C37.6742 80.5 37.8485 80.4611 38.0096 80.3834L74.3376 62.8481C74.7426 62.6527 75 62.2425 75 61.7928V19.2072C75 18.7572 74.7425 18.3474 74.3376 18.1518ZM37.5 2.9732L71.1321 19.2071L74.3376 18.1518L38.0096 0.616484L37.5 2.9732ZM37.5 2.9732L71.1321 19.2071L37.5 35.4411L3.86786 19.2071L37.5 2.9732ZM59.5028 27.423H54.1115L37.5 35.4411L38.672 37.4779L59.5028 27.423ZM72.6559 61.0575L38.672 77.4609V37.4779L46.7783 33.565C47.3612 33.2836 47.6056 32.5832 47.3241 32.0002C47.0427 31.4175 46.3421 31.1729 45.7591 31.4544L37.5 35.4411L34.2502 33.8724C33.6671 33.5907 32.9666 33.8354 32.6851 34.4182C32.4037 35.001 32.6481 35.7016 33.231 35.983L36.328 37.4779V77.4609L2.34406 61.0572V21.0741L28.2225 33.5655C28.3868 33.6449 28.5604 33.6824 28.7312 33.6824C29.1669 33.6824 29.5854 33.4383 29.7874 33.0197C30.0689 32.4369 29.8244 31.7363 29.2416 31.4549L3.86786 19.2071L2.43137 21.1163L36.328 37.4779C36.3331 37.485 50.734 30.6019 50.734 30.6019L37.5 35.4411C37.5 35.8444 43.5667 35.1152 43.5667 35.1152C43.5667 35.1152 47.7738 33.0845 48.5 32.734C48.5 32.734 50.8386 31.6052 51 31.5272L55.997 29.1152C56.4021 28.9198 59.5028 27.423 59.5028 27.423L61.8468 26.2918L72.6559 21.0743V61.0575Z" fill="#408858"></path>
</svg>
