<?xml version="1.0" encoding="UTF-8"?>
<svg xmlns="http://www.w3.org/2000/svg" width="62" height="80" viewBox="0 0 62 80" fill="none">
  <path d="M56.5972 79.9995H5.40283C3.97048 79.9977 2.59733 79.4402 1.5845 78.4493C0.571675 77.4585 0.00185458 76.1151 0 74.7137V15.0731C0.0015455 13.6715 0.57123 12.3278 1.58409 11.3367C2.59695 10.3456 3.97028 9.78795 5.40283 9.78613H15.5461C15.856 9.78613 16.1531 9.90654 16.3722 10.1209C16.5912 10.3352 16.7143 10.6259 16.7143 10.929C16.7143 11.2321 16.5912 11.5228 16.3722 11.7371C16.1531 11.9515 15.856 12.0719 15.5461 12.0719H5.40283C4.58973 12.0731 3.8103 12.3897 3.23546 12.9523C2.66062 13.5149 2.33729 14.2776 2.33636 15.0731V74.7137C2.3376 75.509 2.66107 76.2714 3.23587 76.8337C3.81068 77.3961 4.58993 77.7126 5.40283 77.7138H56.5972C57.4101 77.7126 58.1893 77.3961 58.7641 76.8337C59.3389 76.2714 59.6624 75.509 59.6636 74.7137V15.0731C59.6627 14.2776 59.3394 13.5149 58.7645 12.9523C58.1897 12.3897 57.4103 12.0731 56.5972 12.0719H46.4539C46.144 12.0719 45.8469 11.9515 45.6278 11.7371C45.4088 11.5228 45.2857 11.2321 45.2857 10.929C45.2857 10.6259 45.4088 10.3352 45.6278 10.1209C45.8469 9.90654 46.144 9.78613 46.4539 9.78613H56.5972C58.0297 9.78795 59.4031 10.3456 60.4159 11.3367C61.4288 12.3278 61.9985 13.6715 62 15.0731V74.7137C61.9981 76.1151 61.4283 77.4585 60.4155 78.4493C59.4027 79.4402 58.0295 79.9977 56.5972 79.9995Z" fill="#408858"></path>
  <path d="M54.3009 73.4546H7.69748C7.38766 73.4546 7.09053 73.3342 6.87145 73.1199C6.65237 72.9056 6.5293 72.6149 6.5293 72.3118V17.4769C6.5293 17.1737 6.65237 16.8831 6.87145 16.6687C7.09053 16.4544 7.38766 16.334 7.69748 16.334H15.5348C15.8446 16.334 16.1418 16.4544 16.3608 16.6687C16.5799 16.8831 16.703 17.1737 16.703 17.4769C16.703 17.78 16.5799 18.0707 16.3608 18.285C16.1418 18.4993 15.8446 18.6197 15.5348 18.6197H8.86566V71.1689H53.1327V18.6197H46.4635C46.1537 18.6197 45.8566 18.4993 45.6375 18.285C45.4184 18.0707 45.2954 17.78 45.2954 17.4769C45.2954 17.1737 45.4184 16.8831 45.6375 16.6687C45.8566 16.4544 46.1537 16.334 46.4635 16.334H54.3009C54.6107 16.334 54.9078 16.4544 55.1269 16.6687C55.346 16.8831 55.469 17.1737 55.469 17.4769V72.3118C55.469 72.6149 55.346 72.9056 55.1269 73.1199C54.9078 73.3342 54.6107 73.4546 54.3009 73.4546Z" fill="#408858"></path>
  <path d="M44.7351 20.1423H17.2642C16.4896 20.1423 15.7468 19.8413 15.1991 19.3054C14.6514 18.7696 14.3438 18.0429 14.3438 17.2851V11.6233C14.3453 10.3551 14.861 9.13924 15.7778 8.24257C16.6945 7.34589 17.9374 6.84163 19.2338 6.84042H24.9683L25.8643 3.86896C26.1646 2.75653 26.8338 1.77308 27.767 1.07288C28.7002 0.372679 29.8446 -0.0046633 31.0206 4.35043e-05C32.1966 0.00475031 33.3378 0.39124 34.2651 1.09889C35.1924 1.80653 35.8534 2.79531 36.1443 3.9101L37.0298 6.83927H42.7644C44.0607 6.84048 45.3036 7.34475 46.2204 8.24142C47.1371 9.1381 47.6529 10.3539 47.6544 11.6222V17.2851C47.6544 18.0427 47.3469 18.7692 46.7994 19.305C46.252 19.8408 45.5095 20.142 44.7351 20.1423ZM19.2338 9.12616C18.5569 9.12676 17.9079 9.39001 17.4291 9.85816C16.9504 10.3263 16.681 10.9611 16.6801 11.6233V17.2863C16.6801 17.4378 16.7416 17.5832 16.8512 17.6903C16.9607 17.7975 17.1093 17.8577 17.2642 17.8577H44.7351C44.89 17.8577 45.0386 17.7975 45.1481 17.6903C45.2577 17.5832 45.3192 17.4378 45.3192 17.2863V11.6233C45.3183 10.9611 45.0489 10.3263 44.5702 9.85816C44.0914 9.39001 43.4425 9.12676 42.7656 9.12616H36.1583C35.9062 9.12613 35.6609 9.04631 35.459 8.89861C35.2571 8.75092 35.1094 8.54329 35.0381 8.30672L33.8944 4.51811C33.7392 3.88572 33.3721 3.32236 32.8516 2.91783C32.3311 2.51329 31.6871 2.29087 31.0224 2.286C30.3577 2.28114 29.7104 2.49411 29.1838 2.89099C28.6571 3.28786 28.2814 3.84578 28.1166 4.47582L26.9613 8.30672C26.8899 8.54329 26.7423 8.75092 26.5403 8.89861C26.3384 9.04631 26.0931 9.12613 25.841 9.12616H19.2338Z" fill="#408858"></path>
  <path d="M30.9991 8.08814C31.9695 8.08814 32.7561 7.31858 32.7561 6.36927C32.7561 5.41996 31.9695 4.65039 30.9991 4.65039C30.0288 4.65039 29.2422 5.41996 29.2422 6.36927C29.2422 7.31858 30.0288 8.08814 30.9991 8.08814Z" fill="#408858"></path>
  <path d="M31.0004 8.65937C30.5383 8.65937 30.0866 8.52532 29.7024 8.27416C29.3182 8.023 29.0187 7.66601 28.8419 7.24835C28.6651 6.83068 28.6188 6.3711 28.709 5.92771C28.7991 5.48432 29.0216 5.07704 29.3484 4.75737C29.6751 4.4377 30.0914 4.22001 30.5446 4.13181C30.9978 4.04362 31.4676 4.08888 31.8945 4.26188C32.3214 4.43489 32.6863 4.72785 32.943 5.10374C33.1998 5.47963 33.3368 5.92156 33.3368 6.37363C33.3346 6.9792 33.0878 7.55936 32.6501 7.98757C32.2124 8.41577 31.6194 8.65726 31.0004 8.65937ZM31.0004 5.22048C30.7694 5.22048 30.5435 5.2875 30.3514 5.41308C30.1593 5.53866 30.0096 5.71716 29.9212 5.92599C29.8328 6.13482 29.8096 6.36461 29.8547 6.58631C29.8998 6.808 30.011 7.01164 30.1744 7.17148C30.3378 7.33131 30.5459 7.44016 30.7725 7.48426C30.9991 7.52835 31.234 7.50572 31.4475 7.41922C31.6609 7.33272 31.8434 7.18623 31.9717 6.99829C32.1001 6.81035 32.1686 6.58938 32.1686 6.36335C32.1671 6.0607 32.0435 5.77088 31.8248 5.55687C31.606 5.34287 31.3098 5.22198 31.0004 5.22048Z" fill="#408858"></path>
  <path d="M46.1179 31.2135H15.883C15.5732 31.2135 15.2761 31.0931 15.057 30.8787C14.8379 30.6644 14.7148 30.3737 14.7148 30.0706C14.7148 29.7675 14.8379 29.4768 15.057 29.2625C15.2761 29.0481 15.5732 28.9277 15.883 28.9277H46.1179C46.4277 28.9277 46.7248 29.0481 46.9439 29.2625C47.163 29.4768 47.286 29.7675 47.286 30.0706C47.286 30.3737 47.163 30.6644 46.9439 30.8787C46.7248 31.0931 46.4277 31.2135 46.1179 31.2135Z" fill="#408858"></path>
  <path d="M46.1179 41.4986H15.883C15.5732 41.4986 15.2761 41.3782 15.057 41.1639C14.8379 40.9496 14.7148 40.6589 14.7148 40.3558C14.7148 40.0527 14.8379 39.762 15.057 39.5476C15.2761 39.3333 15.5732 39.2129 15.883 39.2129H46.1179C46.4277 39.2129 46.7248 39.3333 46.9439 39.5476C47.163 39.762 47.286 40.0527 47.286 40.3558C47.286 40.6589 47.163 40.9496 46.9439 41.1639C46.7248 41.3782 46.4277 41.4986 46.1179 41.4986Z" fill="#408858"></path>
  <path d="M17.7911 59.183C17.5704 59.1826 17.3544 59.1211 17.168 59.0055C16.9816 58.89 16.8324 58.7251 16.7378 58.5301C16.6432 58.3351 16.607 58.1178 16.6334 57.9034C16.6598 57.6891 16.7477 57.4865 16.8869 57.319L21.3599 51.9383C21.4555 51.8184 21.5746 51.7183 21.7102 51.6439C21.8458 51.5696 21.9952 51.5224 22.1497 51.5053C22.3042 51.4882 22.4606 51.5014 22.6098 51.5442C22.759 51.587 22.8979 51.6584 23.0185 51.7544C23.1391 51.8504 23.2389 51.969 23.3121 52.1032C23.3852 52.2374 23.4302 52.3846 23.4445 52.536C23.4588 52.6875 23.442 52.8402 23.3952 52.9852C23.3483 53.1303 23.2724 53.2647 23.1717 53.3806L18.6988 58.7613C18.5891 58.8932 18.4507 58.9995 18.2937 59.0725C18.1366 59.1454 17.9649 59.1832 17.7911 59.183Z" fill="#408858"></path>
  <path d="M35.5548 59.1582C35.2918 59.1582 35.0364 59.0713 34.8301 58.9116C34.6238 58.752 34.4786 58.5289 34.4181 58.2784C34.3575 58.028 34.3852 57.7649 34.4965 57.5317C34.6078 57.2985 34.7963 57.1089 35.0315 56.9936L42.8291 53.1787C42.9663 53.1112 43.1158 53.0707 43.269 53.0597C43.4222 53.0487 43.5761 53.0673 43.7219 53.1145C43.8678 53.1617 44.0027 53.2365 44.119 53.3347C44.2353 53.4328 44.3307 53.5525 44.3997 53.6867C44.4687 53.821 44.5101 53.9672 44.5213 54.1171C44.5326 54.267 44.5136 54.4175 44.4654 54.5602C44.4171 54.7029 44.3407 54.8349 44.2403 54.9487C44.1399 55.0625 44.0177 55.1558 43.8804 55.2233L36.0828 59.0382C35.9188 59.1179 35.738 59.159 35.5548 59.1582Z" fill="#408858"></path>
  <path d="M30.8689 58.5159C30.7111 58.516 30.5549 58.4849 30.4097 58.4244C30.2646 58.3639 30.1335 58.2753 30.0243 58.1639L25.1366 53.1661C24.9224 52.947 24.8059 52.6535 24.8128 52.3504C24.8197 52.0472 24.9494 51.7591 25.1734 51.5495C25.3974 51.3399 25.6973 51.226 26.0072 51.2327C26.3171 51.2395 26.6116 51.3664 26.8258 51.5855L31.7123 56.5833C31.8703 56.745 31.9764 56.9486 32.0173 57.1688C32.0581 57.3889 32.032 57.616 31.9422 57.8218C31.8524 58.0276 31.7028 58.203 31.512 58.3264C31.3212 58.4498 31.0976 58.5157 30.8689 58.5159Z" fill="#408858"></path>
  <path d="M16.0116 64.0982C15.2216 64.0982 14.4494 63.869 13.7926 63.4396C13.1358 63.0103 12.6239 62.4 12.3216 61.686C12.0193 60.972 11.9402 60.1863 12.0943 59.4284C12.2484 58.6704 12.6288 57.9741 13.1874 57.4277C13.746 56.8812 14.4576 56.5091 15.2324 56.3583C16.0072 56.2075 16.8102 56.2849 17.54 56.5806C18.2698 56.8764 18.8936 57.3772 19.3325 58.0198C19.7714 58.6624 20.0056 59.4179 20.0056 60.1907C20.0044 61.2266 19.5832 62.2198 18.8344 62.9523C18.0857 63.6849 17.0705 64.0969 16.0116 64.0982ZM16.0116 58.5689C15.6837 58.5689 15.3632 58.6641 15.0906 58.8423C14.818 59.0205 14.6056 59.2737 14.4801 59.5701C14.3547 59.8664 14.3218 60.1925 14.3858 60.5071C14.4498 60.8216 14.6076 61.1106 14.8395 61.3374C15.0713 61.5642 15.3666 61.7187 15.6882 61.7813C16.0097 61.8438 16.343 61.8117 16.6459 61.689C16.9488 61.5662 17.2077 61.3584 17.3899 61.0917C17.572 60.825 17.6692 60.5114 17.6692 60.1907C17.6686 59.7608 17.4938 59.3486 17.183 59.0446C16.8723 58.7406 16.451 58.5696 16.0116 58.5689Z" fill="#408858"></path>
  <path d="M23.9635 54.3579C23.1736 54.3577 22.4015 54.1283 21.7448 53.6988C21.0881 53.2692 20.5764 52.6588 20.2743 51.9447C19.9722 51.2306 19.8933 50.4449 20.0477 49.687C20.202 48.9291 20.5826 48.2329 21.1413 47.6866C21.7001 47.1403 22.4119 46.7684 23.1867 46.6178C23.9615 46.4673 24.7645 46.5449 25.4942 46.8408C26.224 47.1368 26.8476 47.6378 27.2863 48.2805C27.7249 48.9232 27.959 49.6788 27.9587 50.4516C27.9575 51.4876 27.5361 52.4809 26.7871 53.2133C26.038 53.9456 25.0225 54.3573 23.9635 54.3579ZM23.9635 48.8299C23.6357 48.8301 23.3154 48.9254 23.0429 49.1037C22.7705 49.2821 22.5582 49.5354 22.4329 49.8318C22.3076 50.1281 22.275 50.4542 22.3391 50.7687C22.4032 51.0832 22.5611 51.372 22.793 51.5987C23.0249 51.8254 23.3202 51.9798 23.6418 52.0422C23.9633 52.1047 24.2965 52.0725 24.5993 51.9498C24.9022 51.827 25.161 51.6191 25.3431 51.3525C25.5252 51.0858 25.6224 50.7723 25.6224 50.4516C25.6221 50.0214 25.4471 49.6089 25.1361 49.3048C24.825 49.0007 24.4033 48.8299 23.9635 48.8299Z" fill="#408858"></path>
  <path d="M32.9999 63.1001C32.2097 63.1001 31.4372 62.8708 30.7803 62.4412C30.1234 62.0116 29.6115 61.401 29.3093 60.6866C29.0072 59.9723 28.9284 59.1863 29.083 58.4282C29.2376 57.6701 29.6186 56.9739 30.1777 56.4276C30.7369 55.8814 31.4491 55.5097 32.2243 55.3595C32.9994 55.2094 33.8027 55.2876 34.5324 55.5842C35.2621 55.8809 35.8854 56.3826 36.3236 57.0259C36.7618 57.6692 36.995 58.4253 36.9939 59.1983C36.9911 60.2333 36.5692 61.225 35.8206 61.9563C35.072 62.6876 34.0578 63.0989 32.9999 63.1001ZM32.9999 57.5709C32.6723 57.5709 32.352 57.6659 32.0795 57.8438C31.8071 58.0218 31.5946 58.2747 31.469 58.5707C31.3433 58.8667 31.3102 59.1925 31.3737 59.5069C31.4371 59.8214 31.5944 60.1103 31.8257 60.3374C32.0569 60.5644 32.3517 60.7193 32.6729 60.7825C32.9941 60.8457 33.3272 60.8144 33.6302 60.6926C33.9332 60.5707 34.1925 60.3637 34.3753 60.0978C34.5582 59.8318 34.6564 59.5188 34.6575 59.1983C34.658 58.985 34.6155 58.7736 34.5324 58.5763C34.4493 58.3791 34.3273 58.1997 34.1734 58.0486C34.0194 57.8974 33.8366 57.7775 33.6352 57.6955C33.4338 57.6135 33.218 57.5712 32.9999 57.5709Z" fill="#408858"></path>
  <path d="M45.9901 57.1255C45.2002 57.1255 44.4281 56.8964 43.7713 56.467C43.1145 56.0377 42.6026 55.4275 42.3002 54.7136C41.9979 53.9997 41.9187 53.2141 42.0728 52.4561C42.2268 51.6982 42.607 51.0019 43.1655 50.4554C43.724 49.9089 44.4355 49.5367 45.2102 49.3858C45.9849 49.2349 46.7879 49.3121 47.5177 49.6077C48.2476 49.9032 48.8714 50.4039 49.3104 51.0463C49.7494 51.6887 49.9839 52.4441 49.9841 53.2169C49.9832 54.253 49.5621 55.2465 48.8133 55.9793C48.0645 56.7121 47.0492 57.1243 45.9901 57.1255ZM45.9901 51.5963C45.6622 51.5963 45.3417 51.6914 45.069 51.8697C44.7964 52.0479 44.584 52.3013 44.4585 52.5977C44.3331 52.8941 44.3003 53.2202 44.3644 53.5348C44.4284 53.8494 44.5864 54.1384 44.8184 54.3652C45.0503 54.5919 45.3458 54.7463 45.6674 54.8087C45.9891 54.8712 46.3224 54.8389 46.6253 54.716C46.9281 54.5931 47.1869 54.385 47.369 54.1182C47.551 53.8513 47.648 53.5377 47.6478 53.2169C47.6471 52.7871 47.4723 52.375 47.1615 52.0712C46.8507 51.7674 46.4294 51.5966 45.9901 51.5963Z" fill="#408858"></path>
</svg>
