<?xml version="1.0" encoding="UTF-8"?>
<svg xmlns="http://www.w3.org/2000/svg" width="80" height="80" viewBox="0 0 80 80" fill="none">
  <path d="M76.0024 12.1378V2.82337C76.0024 1.3536 74.8089 0.162109 73.3367 0.162109H33.3512C31.879 0.162109 30.6855 1.3536 30.6855 2.82337V12.1378C30.6855 13.6075 31.879 14.799 33.3512 14.799H37.3498V21.4522C37.3498 21.9711 36.8166 20.9066 46.4798 37.4197C46.8213 37.9975 47.3687 38.4253 48.0126 38.6173V61.3711C48.0149 61.8162 48.24 62.2307 48.6123 62.4755C52.9574 65.363 52.7975 65.363 53.344 65.363C53.8904 65.363 53.7038 65.363 58.0756 62.4755C58.4479 62.2307 58.673 61.8162 58.6753 61.3711V38.6306C59.3192 38.4386 59.8667 38.0108 60.2081 37.433C69.8579 20.9199 69.3381 21.9711 69.3381 21.4522V14.799H73.3367C74.8089 14.799 76.0024 13.6075 76.0024 12.1378ZM56.0096 47.3462L50.6783 50.899V47.4527L56.0096 43.8999V47.3462ZM50.6783 54.1058L56.0096 50.553V53.9994L50.6783 57.5522V54.1058ZM56.0096 40.6931L50.6783 44.2459V38.7504H56.0096V40.6931ZM53.344 62.4356L50.6783 60.7058L56.0096 57.2062V60.6525L53.344 62.4356ZM66.6724 20.1216H52.0111C51.275 20.1216 50.6783 20.7173 50.6783 21.4522C50.6783 22.1871 51.275 22.7828 52.0111 22.7828H65.6861L57.9156 36.0891H48.7723L41.0018 22.7828H45.3469C46.083 22.7828 46.6797 22.1871 46.6797 21.4522C46.6797 20.7173 46.083 20.1216 45.3469 20.1216H40.0155V14.799H66.6724V20.1216ZM73.3367 12.1378H33.3512V2.82337H36.0169V5.48463C36.0169 6.21951 36.6137 6.81526 37.3498 6.81526C38.0859 6.81526 38.6826 6.21951 38.6826 5.48463V2.82337H41.3483V5.48463C41.3483 6.21951 41.9451 6.81526 42.6812 6.81526C43.4173 6.81526 44.014 6.21951 44.014 5.48463V2.82337H46.6797V5.48463C46.6797 6.21951 47.2765 6.81526 48.0126 6.81526C48.7487 6.81526 49.3454 6.21951 49.3454 5.48463V2.82337H52.0111V5.48463C52.0111 6.21951 52.6078 6.81526 53.344 6.81526C54.0801 6.81526 54.6768 6.21951 54.6768 5.48463V2.82337H57.3425V5.48463C57.3425 6.21951 57.9392 6.81526 58.6753 6.81526C59.4115 6.81526 60.0082 6.21951 60.0082 5.48463V2.82337H62.6739V5.48463C62.6739 6.21951 63.2706 6.81526 64.0067 6.81526C64.7428 6.81526 65.3396 6.21951 65.3396 5.48463V2.82337H68.0053V5.48463C68.0053 6.21951 68.602 6.81526 69.3381 6.81526C70.0742 6.81526 70.671 6.21951 70.671 5.48463V2.82337H73.3367V12.1378Z" fill="#408858"></path>
  <path d="M78.6673 60.041H67.3381C65.7802 60.0697 64.3809 60.9993 63.7527 62.4228C62.1267 65.8293 52.8101 69.3554 40.0147 69.3554C27.2194 69.3554 17.8895 65.8293 16.2767 62.4228C15.6485 60.9993 14.2492 60.0697 12.6913 60.041H1.36214C0.626033 60.041 0.0292969 60.6368 0.0292969 61.3716V78.6698C0.0292969 79.4047 0.626033 80.0005 1.36214 80.0005H78.6673C79.4034 80.0005 80.0001 79.4047 80.0001 78.6698V61.3716C80.0001 60.6368 79.4034 60.041 78.6673 60.041V60.041ZM77.3345 77.3392H2.69499V62.7023H12.6913C13.2163 62.7304 13.6757 63.0639 13.8643 63.5539C16.2367 68.5437 26.9928 72.0167 40.0147 72.0167C53.0366 72.0167 63.7927 68.5437 66.1652 63.5539C66.3537 63.0639 66.8131 62.7304 67.3381 62.7023H77.3345V77.3392Z" fill="#408858"></path>
  <path d="M43.0665 60.9845C43.5891 61.5062 44.4365 61.5062 44.9592 60.9845C45.4818 60.4627 45.4818 59.6168 44.9592 59.095L34.2964 48.45C33.9583 48.1124 33.4655 47.9806 33.0037 48.1041C32.5418 48.2277 32.1811 48.5878 32.0574 49.0489C31.9336 49.51 32.0656 50.0019 32.4037 50.3394L43.0665 60.9845Z" fill="#408858"></path>
  <path d="M61.7263 60.9845C61.9766 61.2364 62.3172 61.3781 62.6726 61.3781C63.028 61.3781 63.3687 61.2364 63.6189 60.9845L74.2817 50.3394C74.6198 50.0019 74.7518 49.51 74.6281 49.0489C74.5043 48.5878 74.1436 48.2277 73.6818 48.1041C73.2199 47.9806 72.7272 48.1124 72.3891 48.45L61.7263 59.095C61.474 59.3448 61.332 59.6849 61.332 60.0397C61.332 60.3945 61.474 60.7346 61.7263 60.9845Z" fill="#408858"></path>
  <path d="M29.3524 46.7335C30.0885 46.7335 30.6852 46.1378 30.6852 45.4029C30.6852 44.668 30.0885 44.0723 29.3524 44.0723C28.6163 44.0723 28.0195 44.668 28.0195 45.4029C28.0195 46.1378 28.6163 46.7335 29.3524 46.7335Z" fill="#408858"></path>
  <path d="M77.3348 46.7335C78.0709 46.7335 78.6676 46.1378 78.6676 45.4029C78.6676 44.668 78.0709 44.0723 77.3348 44.0723C76.5987 44.0723 76.002 44.668 76.002 45.4029C76.002 46.1378 76.5987 46.7335 77.3348 46.7335Z" fill="#408858"></path>
  <path d="M44.0139 52.0571C44.5237 52.0548 44.9875 51.7623 45.2087 51.3037C45.4299 50.8452 45.3696 50.3008 45.0536 49.9015L39.7222 43.2483C39.4436 42.8299 38.9527 42.6039 38.453 42.6638C37.9534 42.7238 37.5302 43.0597 37.3589 43.5321C37.1876 44.0045 37.2975 44.533 37.6429 44.8983L42.9743 51.5515C43.2258 51.8691 43.6084 52.0552 44.0139 52.0571Z" fill="#408858"></path>
  <path d="M62.6724 52.0563C63.078 52.0545 63.4606 51.8684 63.7121 51.5507L69.0434 44.8976C69.5002 44.3271 69.411 43.4956 68.8435 43.0347C68.5665 42.8129 68.2123 42.7107 67.8595 42.7507C67.5067 42.7906 67.1844 42.9695 66.9642 43.2476L61.6328 49.9007C61.3167 50.3001 61.2565 50.8444 61.4777 51.303C61.6988 51.7616 62.1626 52.054 62.6724 52.0563V52.0563Z" fill="#408858"></path>
  <path d="M20.5951 58.1777C21.574 58.5931 22.6784 58.6021 23.6639 58.2025C24.6495 57.803 25.4349 57.0279 25.8465 56.0487C28.83 49.4956 26.176 41.7568 19.7954 38.4045C17.0154 37.0225 15.8634 33.6671 17.2097 30.8732C20.1834 24.3275 17.53 16.6022 11.1585 13.2556C8.3844 11.8685 7.23431 8.51868 8.57281 5.72427C9.21104 4.40144 9.07036 2.83562 8.20652 1.6473C7.34268 0.458986 5.89513 -0.159983 4.43753 0.0356849C2.97992 0.231352 1.74757 1.21007 1.22882 2.58398C-1.76391 9.13323 0.885617 16.8759 7.26662 20.2281C10.0483 21.6155 11.1997 24.975 9.85235 27.7728C6.87014 34.322 9.52473 42.0565 15.9035 45.4036C18.6852 46.791 19.8365 50.1505 18.4892 52.9483C17.6282 54.973 18.5699 57.3115 20.5951 58.1777ZM17.1963 43.0883C12.0394 40.3702 9.89552 34.1124 12.3048 28.8107C14.2053 24.7637 12.5557 19.9409 8.57281 17.8995C3.40729 15.1958 1.25486 8.93615 3.66793 3.63518C3.8784 3.13902 4.3678 2.81855 4.90748 2.82349C5.35194 2.82828 5.76477 3.05395 6.00823 3.42521C6.25169 3.79647 6.29375 4.26447 6.12037 4.67307C4.22929 8.72397 5.88334 13.5427 9.86567 15.5842C15.0262 18.2926 17.1723 24.5511 14.7572 29.8486C12.8587 33.8991 14.5146 38.7231 18.5025 40.7597C23.6594 43.4779 25.8033 49.7357 23.3941 55.0374C23.206 55.4748 22.7985 55.7787 22.325 55.8348C21.8516 55.8908 21.3842 55.6905 21.0988 55.3092C20.8135 54.9279 20.7535 54.4236 20.9416 53.9862C22.839 49.9395 21.1825 45.1197 17.1963 43.0883V43.0883Z" fill="#408858"></path>
  <path d="M34.404 23.9668C33.5869 21.9165 31.2597 20.9156 29.2059 21.7314C27.1522 22.5471 26.1496 24.8705 26.9667 26.9208C28.2996 30.3804 27.0467 31.4982 27.0467 31.4982C25.6244 32.5016 25.0162 34.3087 25.5432 35.966C26.0701 37.6232 27.6109 38.7493 29.3525 38.7501C30.1395 38.7505 30.9092 38.5191 31.5651 38.0848C31.8449 37.8985 38.2293 33.5207 34.404 23.9668V23.9668ZM30.0856 35.8626C29.4774 36.2661 28.6573 36.1059 28.2463 35.5034C28.043 35.2037 27.9707 34.8343 28.0462 34.4803C28.1216 34.1263 28.3382 33.8183 28.6461 33.6272C29.1393 33.2546 31.4984 31.0458 29.4458 25.9361C29.2696 25.494 29.3431 24.9917 29.6385 24.6183C29.9339 24.2449 30.4065 24.0572 30.8781 24.1259C31.3497 24.1947 31.7487 24.5094 31.9249 24.9515C34.9505 32.5095 30.2988 35.7296 30.0856 35.8626V35.8626Z" fill="#408858"></path>
  <path d="M8.02546 46.2948C7.84688 44.5483 6.54633 43.1233 4.82105 42.7837C3.09577 42.4441 1.35076 43.2696 0.521533 44.8178C0.136944 45.5066 -0.0346583 46.2937 0.0283798 47.0798C0.0283798 47.3992 0.828088 55.0636 11.0644 56.3942C13.269 56.6588 15.2711 55.089 15.5361 52.888C15.8011 50.687 14.2287 48.6883 12.024 48.4238C8.35868 47.9714 8.02546 46.2948 8.02546 46.2948V46.2948ZM12.917 52.5354C12.8771 52.8894 12.6966 53.2126 12.416 53.4327C12.1354 53.6528 11.7782 53.7514 11.4242 53.7064C3.30718 52.7217 2.69407 47.0931 2.69407 46.8403C2.63255 46.1094 3.17504 45.4667 3.90697 45.4032C4.26723 45.3702 4.62548 45.4847 4.89945 45.7206C5.17342 45.9565 5.33958 46.2934 5.35977 46.654C5.45307 47.2794 6.25278 50.3931 11.7308 51.0584C12.4585 51.1485 12.9766 51.8085 12.8904 52.5354H12.917Z" fill="#408858"></path>
  <path d="M8.02702 72.0156H6.69418C5.95806 72.0156 5.36133 72.6114 5.36133 73.3463C5.36133 74.0811 5.95806 74.6769 6.69418 74.6769H8.02702C8.76313 74.6769 9.35987 74.0811 9.35987 73.3463C9.35987 72.6114 8.76313 72.0156 8.02702 72.0156Z" fill="#408858"></path>
  <path d="M22.6862 72.0156H13.3563C12.6202 72.0156 12.0234 72.6114 12.0234 73.3463C12.0234 74.0811 12.6202 74.6769 13.3563 74.6769H22.6862C23.4223 74.6769 24.0191 74.0811 24.0191 73.3463C24.0191 72.6114 23.4223 72.0156 22.6862 72.0156Z" fill="#408858"></path>
</svg>
