<svg width="106" height="100" viewBox="0 0 106 100" fill="none" xmlns="http://www.w3.org/2000/svg">
<path d="M34.358 57.1779C34.8111 57.1779 35.2416 56.9784 35.5364 56.6317C36.244 55.8001 52.1581 36.9294 53.5662 21.5868H63.2479L59.5763 25.2905C57.7756 27.1069 57.1437 29.8514 57.9665 32.2822L61.9003 43.9081L44.8148 61.1435C44.2083 61.7553 44.2083 62.7473 44.8148 63.3589C45.1179 63.6649 45.5155 63.8178 45.9129 63.8178C46.3102 63.8178 46.7078 63.6649 47.0109 63.3589L64.7806 45.4333C65.1993 45.011 65.3436 44.385 65.1523 43.8195L60.906 31.2697C60.4631 29.9611 60.8031 28.4839 61.7726 27.5059L68.0951 21.1281C68.9577 20.3354 68.5376 18.4659 66.9968 18.4536H53.6405C53.1102 8.18773 44.6643 0 34.358 0C23.711 0 15.0488 8.73813 15.0488 19.4786C15.0488 35.1413 32.4392 55.7615 33.1796 56.6317C33.4747 56.9784 33.905 57.1779 34.358 57.1779ZM34.358 3.13301C43.2925 3.13301 50.5613 10.4656 50.5613 19.4784C50.5613 19.6557 50.5582 19.8343 50.553 20.0133C50.553 20.0156 50.5526 20.0177 50.5526 20.0198C50.5526 20.0211 50.5528 20.0221 50.5528 20.0234C50.2001 32.2183 38.2117 48.2816 34.3578 53.14C30.4464 48.2087 18.1546 31.7347 18.1546 19.4782C18.1548 10.4656 25.4236 3.13301 34.358 3.13301Z" fill="#408858"/>
<path d="M34.357 28.3337C39.2329 28.3423 43.3088 24.2486 43.2993 19.3127C43.2993 14.3386 39.2878 10.292 34.357 10.292C29.4261 10.292 25.4147 14.3386 25.4147 19.3127C25.3577 24.0842 29.4348 28.3801 34.357 28.3337ZM34.357 25.2005C31.9372 25.2005 29.857 23.7072 28.9737 21.5862H39.7402C38.8569 23.7072 36.7767 25.2005 34.357 25.2005ZM34.357 13.4254C37.2857 13.4254 39.7164 15.6128 40.1303 18.453H28.5834C28.9975 15.6128 31.4284 13.4254 34.357 13.4254Z" fill="#408858"/>
<path d="M97.8394 18.4531H81.6372C81.2808 18.4694 80.8797 18.5617 80.5387 18.9122L69.1772 30.3736C68.7585 30.7959 68.6142 31.4221 68.8058 31.9874L73.0516 44.5345C73.5016 45.8648 73.1696 47.308 72.1853 48.3008L23.5874 97.3252C22.7183 98.1497 23.1513 99.9809 24.6852 99.9997H97.8394C102.339 99.9997 106.001 96.3073 106.001 91.7688V26.6839C106.001 22.1455 102.339 18.4531 97.8394 18.4531ZM81.1423 22.7344L102.895 44.6775V49.7007L78.6536 25.2451L81.1423 22.7344ZM102.895 26.6839V40.2465L84.3969 21.5863H97.8396C100.627 21.5863 102.895 23.8732 102.895 26.6839ZM74.3816 50.5164C76.2096 48.6724 76.8264 45.9927 75.9911 43.5226L72.0575 31.8988L76.457 27.4607L102.189 53.4205L80.4894 75.3108L77.3433 72.1371C75.8553 70.6358 73.8768 69.8093 71.7726 69.8093H69.8794C68.6047 69.8093 67.4062 69.3086 66.5048 68.3993L61.5794 63.4307L74.3816 50.5164ZM59.3833 65.6463L64.3087 70.6149C65.7967 72.116 67.775 72.9427 69.8794 72.9427H71.7726C73.0473 72.9427 74.2458 73.4434 75.1471 74.3527L78.2933 77.5264L59.7334 96.249L44.3901 80.771L59.3833 65.6463ZM37.5098 87.7117L46.585 96.8665H28.4345L37.5098 87.7117ZM50.9775 96.8665L39.7059 85.4961L42.1938 82.9864L55.953 96.8665H50.9775ZM97.8394 96.8665H72.8818L83.8277 85.8253C84.4342 85.2134 84.4342 84.2217 83.8277 83.6099C83.2212 82.9978 82.2378 82.998 81.6316 83.6099L68.4894 96.8665H63.5136L102.895 57.1398V62.1611L86.7796 78.4169C86.1731 79.0287 86.1731 80.0204 86.7796 80.6323C87.0827 80.9383 87.4803 81.0912 87.8777 81.0912C88.275 81.0912 88.6726 80.9383 88.9757 80.6323L102.895 66.5921V91.7688C102.895 94.5797 100.627 96.8665 97.8394 96.8665Z" fill="#408858"/>
<path d="M10.3489 99.9699C10.6218 99.8974 10.8577 99.8241 11.1438 99.5411L32.1137 78.3873C32.8283 78.5888 33.5803 78.6991 34.3578 78.6991C38.9588 78.6991 42.7019 74.9232 42.7019 70.2818C42.7019 65.6405 38.9588 61.8646 34.3578 61.8646C29.7569 61.8646 26.0138 65.6405 26.0138 70.2818C26.0138 72.9612 27.2628 75.3503 29.2026 76.8929L24.1462 81.9936L3.10597 60.7688V39.5362L7.24623 43.7128C7.54938 44.0186 7.94694 44.1717 8.3443 44.1717C8.74166 44.1717 9.13922 44.0188 9.44236 43.7128C10.0489 43.101 10.0489 42.109 9.44236 41.4974L3.10597 35.1052V26.6844C3.10597 23.8735 5.37375 21.5868 8.16146 21.5868H9.30881C10.1665 21.5868 10.8618 20.8854 10.8618 20.0202C10.8618 19.155 10.1665 18.4536 9.30881 18.4536H8.16146C3.66111 18.4536 0 22.146 0 26.6844V91.7692C0 96.3078 3.66111 100 8.16146 100H10.0455C10.0766 99.9998 10.1832 99.999 10.3489 99.9699ZM34.3578 64.9978C37.2462 64.9978 39.596 67.3682 39.596 70.2818C39.596 73.1955 37.2462 75.5659 34.3578 75.5659C31.4695 75.5659 29.1197 73.1955 29.1197 70.2818C29.1197 67.3682 31.4695 64.9978 34.3578 64.9978ZM21.9499 84.209L19.461 86.7197L3.10597 70.2213V65.1998L21.9499 84.209ZM3.10597 91.7692V74.6521L17.2649 88.9351L9.40219 96.8668H8.16146C5.37375 96.867 3.10597 94.5802 3.10597 91.7692Z" fill="#408858"/>
</svg>
