<svg width="115" height="106" viewBox="0 0 115 106" fill="none" xmlns="http://www.w3.org/2000/svg">
<path d="M86.1691 18.4197C87.0955 18.4197 87.8461 17.6619 87.8461 16.7266V14.4505C87.8461 13.5152 87.0955 12.7573 86.1691 12.7573C85.2428 12.7573 84.4922 13.5152 84.4922 14.4505V16.7266C84.4922 17.6616 85.243 18.4197 86.1691 18.4197Z" fill="#408858"/>
<path d="M104.415 33.4521C103.489 33.4521 102.738 34.21 102.738 35.1453C102.738 36.0806 103.489 36.8385 104.415 36.8385H106.669C107.596 36.8385 108.346 36.0806 108.346 35.1453C108.346 34.21 107.596 33.4521 106.669 33.4521H104.415Z" fill="#408858"/>
<path d="M65.6691 33.4521C64.7428 33.4521 63.9922 34.21 63.9922 35.1453C63.9922 36.0806 64.7428 36.8385 65.6691 36.8385H67.9234C68.8498 36.8385 69.6004 36.0806 69.6004 35.1453C69.6004 34.21 68.8498 33.4521 67.9234 33.4521H65.6691Z" fill="#408858"/>
<path d="M93.5224 87.5376C90.5442 87.5376 88.1211 89.9841 88.1211 92.991C88.1211 95.9978 90.5442 98.4443 93.5224 98.4443C96.5005 98.4443 98.9236 95.9978 98.9236 92.991C98.9236 89.9841 96.5005 87.5376 93.5224 87.5376ZM93.5224 95.058C92.3933 95.058 91.475 94.1308 91.475 92.991C91.475 91.8511 92.3933 90.9239 93.5224 90.9239C94.6514 90.9239 95.5697 91.8511 95.5697 92.991C95.5697 94.1308 94.6514 95.058 93.5224 95.058Z" fill="#408858"/>
<path d="M32.293 92.991C32.293 95.9978 34.7161 98.4443 37.6943 98.4443C40.6726 98.4443 43.0955 95.9978 43.0955 92.991C43.0955 89.9841 40.6726 87.5376 37.6943 87.5376C34.7161 87.5376 32.293 89.9839 32.293 92.991ZM39.7415 92.991C39.7415 94.1308 38.8232 95.058 37.6943 95.058C36.5654 95.058 35.6469 94.1308 35.6469 92.991C35.6469 91.8511 36.5654 90.9239 37.6943 90.9239C38.8232 90.9239 39.7415 91.8511 39.7415 92.991Z" fill="#408858"/>
<path d="M49.0774 67.0042C50.9706 65.1437 51.1888 61.9075 49.0383 59.7944L42.068 52.9439C39.5535 50.4737 35.5169 50.5283 33.0697 53.0667L31.7644 54.4208C31.1184 55.091 31.1327 56.1629 31.7963 56.8149L38.5153 63.4183L31.7963 70.0214C31.4777 70.3345 31.2953 70.7628 31.2892 71.2116C31.2832 71.6606 31.4542 72.0936 31.7644 72.4155L33.0697 73.7696C35.525 76.3164 39.5528 76.3647 42.068 73.8922L49.0774 67.0042ZM35.4731 71.408L35.3374 71.2673L42.0892 64.6317C42.4134 64.3132 42.5966 63.8754 42.5966 63.4185C42.5966 62.9616 42.4137 62.5238 42.0892 62.2053L35.3374 55.5694L35.4731 55.4288C36.6309 54.228 38.5397 54.202 39.7288 55.3705L46.6991 62.2211C47.443 62.9521 47.3435 63.9824 46.7382 64.5775L39.7288 71.466C38.5453 72.6289 36.6403 72.6187 35.4731 71.408Z" fill="#408858"/>
<path d="M84.4922 35.1448C84.4922 36.0801 85.2428 36.838 86.1691 36.838H91.8721C92.7985 36.838 93.5491 36.0801 93.5491 35.1448C93.5491 34.2095 92.7985 33.4517 91.8721 33.4517H87.8461V22.9075C87.8461 21.9722 87.0955 21.2144 86.1691 21.2144C85.2428 21.2144 84.4922 21.9722 84.4922 22.9075V35.1448Z" fill="#408858"/>
<path d="M28.6457 20.6754H57.5208C58.4472 20.6754 59.1978 19.9175 59.1978 18.9822C59.1978 18.0469 58.4472 17.2891 57.5208 17.2891H28.6457C27.7196 17.2891 26.9688 18.0469 26.9688 18.9822C26.9688 19.9175 27.7196 20.6754 28.6457 20.6754Z" fill="#408858"/>
<path d="M21.6496 29.4244H51.6228C52.5489 29.4244 53.2997 28.6666 53.2997 27.7313C53.2997 26.7959 52.5489 26.0381 51.6228 26.0381H21.6496C20.7235 26.0381 19.9727 26.7959 19.9727 27.7313C19.9727 28.6666 20.7235 29.4244 21.6496 29.4244Z" fill="#408858"/>
<path d="M38.7941 33.8394C37.868 33.8394 37.1172 34.5972 37.1172 35.5325C37.1172 36.4678 37.868 37.2257 38.7941 37.2257H53.709C54.6351 37.2257 55.3859 36.4678 55.3859 35.5325C55.3859 34.5972 54.6351 33.8394 53.709 33.8394H38.7941Z" fill="#408858"/>
<path d="M24.6574 33.8394C23.7313 33.8394 22.9805 34.5972 22.9805 35.5325C22.9805 36.4678 23.7313 37.2257 24.6574 37.2257H32.1013C33.0274 37.2257 33.7783 36.4678 33.7783 35.5325C33.7783 34.5972 33.0274 33.8394 32.1013 33.8394H24.6574Z" fill="#408858"/>
<path d="M1.67695 60.5416H7.81013C8.73626 60.5416 9.48708 59.7837 9.48708 58.8484C9.48708 57.9131 8.73626 57.1553 7.81013 57.1553H1.67695C0.750828 57.1553 0 57.9131 0 58.8484C0 59.7837 0.750828 60.5416 1.67695 60.5416Z" fill="#408858"/>
<path d="M6.14883 75.4575H1.67695C0.750828 75.4575 0 76.2154 0 77.1507C0 78.086 0.750828 78.8439 1.67695 78.8439H6.14883C7.07495 78.8439 7.82578 78.086 7.82578 77.1507C7.82578 76.2154 7.07495 75.4575 6.14883 75.4575Z" fill="#408858"/>
<path d="M25.8764 61.1201H19.8957C18.9696 61.1201 18.2188 61.878 18.2188 62.8133C18.2188 63.7486 18.9696 64.5064 19.8957 64.5064H25.8764C26.8025 64.5064 27.5533 63.7486 27.5533 62.8133C27.5533 61.878 26.8025 61.1201 25.8764 61.1201Z" fill="#408858"/>
<path d="M101.961 58.8708C109.731 53.5856 114.48 44.6791 114.48 35.1468C114.48 30.6163 113.459 26.2811 111.446 22.2625C111.028 21.4281 110.019 21.0937 109.193 21.5157C108.366 21.9376 108.035 22.9564 108.453 23.7906C110.227 27.3313 111.126 31.1523 111.126 35.1468C111.126 43.7196 106.767 51.7179 99.6696 56.3392L89.9064 45.5523C88.7723 44.2989 87.1573 43.5803 85.4761 43.5803H62.6458C61.6942 40.8785 61.2115 38.0468 61.2115 35.1468C61.2115 21.2522 72.4073 9.94838 86.1688 9.94838C93.3072 9.94838 100.119 13.0467 104.857 18.4488C105.471 19.1486 106.531 19.2141 107.225 18.5937C107.918 17.9738 107.982 16.9037 107.368 16.2036C104.905 13.3948 101.946 11.1372 98.6842 9.51335V3.77893C98.6842 1.6952 97.0053 0 94.9415 0H77.3963C75.3325 0 73.6536 1.6952 73.6536 3.77893V9.51177C64.3031 14.1845 57.8576 23.9191 57.8576 35.1468C57.8576 38.0328 58.2806 40.8593 59.1135 43.5803H16.351C14.2118 43.5803 12.4546 45.25 12.2831 47.3663H6.14883C5.2227 47.3663 4.47188 48.1241 4.47188 49.0594C4.47188 49.9947 5.2227 50.7526 6.14883 50.7526H12.2661V67.1181H1.67695C0.750828 67.1181 0 67.876 0 68.8113C0 69.7466 0.750828 70.5044 1.67695 70.5044H12.2661V75.4568C11.3474 75.4654 10.6048 76.2194 10.6048 77.1491C10.6048 78.0788 11.3472 78.8328 12.2661 78.8414V90.8182C12.2661 92.5958 13.6985 94.0417 15.4588 94.0417H19.9707V95.2204H14.7386C13.8125 95.2204 13.0617 95.9782 13.0617 96.9136C13.0617 97.8489 13.8125 98.6067 14.7386 98.6067H21.6477C22.5738 98.6067 23.3246 97.8489 23.3246 96.9136V94.0417H24.8547C25.3868 100.725 30.9398 106 37.6937 106C39.9224 106 42.1226 105.413 44.056 104.302C44.861 103.84 45.142 102.806 44.6841 101.993C44.2262 101.18 43.2026 100.897 42.3972 101.359C40.9684 102.18 39.3418 102.614 37.6937 102.614C32.4385 102.614 28.163 98.297 28.163 92.9908C28.163 87.6847 32.4385 83.368 37.6937 83.368C42.9488 83.368 47.2243 87.6847 47.2243 92.9908C47.2243 94.4375 46.9138 95.8288 46.3011 97.1262C45.9025 97.9703 46.2573 98.9808 47.0931 99.3831C47.9293 99.7854 48.9299 99.4274 49.3286 98.5835C50.0081 97.1445 50.4081 95.6204 50.5322 94.0417H80.6847C81.2169 100.725 86.7698 106 93.5237 106C100.278 106 105.83 100.725 106.363 94.0417H109.815C112.387 94.0417 114.48 91.9286 114.48 89.3313V75.0478C114.48 73.535 113.923 72.0867 112.913 70.9702L101.961 58.8708ZM77.0075 3.77893C77.0075 3.56243 77.1819 3.38634 77.3963 3.38634H94.9415C95.1559 3.38634 95.3303 3.56243 95.3303 3.77893V8.10576C92.41 7.09595 89.3179 6.56227 86.1688 6.56227C82.964 6.56227 79.8822 7.10363 77.0073 8.09899V3.77893H77.0075ZM87.4307 47.837L104.882 67.1181H92.3728C91.4465 67.1181 90.6959 67.876 90.6959 68.8113C90.6959 69.7466 91.4465 70.5044 92.3728 70.5044H107.947L110.437 73.2553C111.452 74.3768 111.025 75.5939 111.126 76.8854H109.833C108.907 76.8854 108.156 77.6433 108.156 78.5786C108.156 79.5139 108.907 80.2717 109.833 80.2717H111.126V82.7772H101.489C99.2951 81.0292 96.529 79.9821 93.5239 79.9821C90.5188 79.9821 87.7527 81.0292 85.5588 82.7772H67.2874V46.9669H74.52V67.0969C74.52 68.9758 76.034 70.5046 77.8949 70.5046H85.6686C86.595 70.5046 87.3456 69.7468 87.3456 68.8115C87.3456 67.8762 86.595 67.1183 85.6686 67.1183H77.8949C77.8833 67.1183 77.8739 67.1086 77.8739 67.0969V46.9669H85.4765C86.2178 46.9669 86.9303 47.2841 87.4307 47.837ZM80.8511 90.6558H67.287V86.1635H82.5624C81.7325 87.5167 81.1435 89.0345 80.8511 90.6558ZM48.6547 86.1635H63.9331V90.6558H50.3661C50.0736 89.0345 49.4846 87.5167 48.6547 86.1635ZM15.62 86.1635H26.7322C25.9022 87.5167 25.3133 89.0345 25.0208 90.6558H15.62V86.1635ZM29.7284 82.7772H15.62V78.8425H22.8868C23.813 78.8425 24.5638 78.0846 24.5638 77.1493C24.5638 76.214 23.813 75.4562 22.8868 75.4562H15.62V70.5044H22.8868C23.813 70.5044 24.5638 69.7466 24.5638 68.8113C24.5638 67.876 23.813 67.1181 22.8868 67.1181H15.62V47.7049C15.62 47.2979 15.9478 46.9667 16.351 46.9667H63.9331V82.777H45.6587C43.4648 81.0289 40.6988 79.9819 37.6937 79.9819C34.6886 79.9819 31.9225 81.0292 29.7284 82.7772ZM93.5237 102.614C88.2683 102.614 83.993 98.2974 83.993 92.9913C83.993 87.6851 88.2683 83.3684 93.5237 83.3684C98.779 83.3684 103.054 87.6851 103.054 92.9913C103.054 98.2974 98.779 102.614 93.5237 102.614ZM109.814 90.6558H106.196C105.904 89.0345 105.315 87.5167 104.485 86.1635H111.126V89.3318C111.126 90.0619 110.538 90.6558 109.814 90.6558Z" fill="#408858"/>
</svg>
