<svg width="88" height="100" viewBox="0 0 88 100" fill="none" xmlns="http://www.w3.org/2000/svg">
<path d="M59.284 26.915H11.8156C11.0102 26.915 10.3574 27.5736 10.3574 28.3861C10.3574 29.1986 11.0102 29.8572 11.8156 29.8572H59.2842C60.0896 29.8572 60.7424 29.1986 60.7424 28.3861C60.7424 27.5736 60.0894 26.915 59.284 26.915Z" fill="#408858"/>
<path d="M11.8156 19.6531H35.5497C36.3551 19.6531 37.0079 18.9945 37.0079 18.182C37.0079 17.3695 36.3551 16.7109 35.5497 16.7109H11.8156C11.0102 16.7109 10.3574 17.3695 10.3574 18.182C10.3574 18.9947 11.0102 19.6531 11.8156 19.6531Z" fill="#408858"/>
<path d="M59.284 35.9561H11.8156C11.0102 35.9561 10.3574 36.6147 10.3574 37.4272C10.3574 38.2397 11.0102 38.8982 11.8156 38.8982H59.2842C60.0896 38.8982 60.7424 38.2397 60.7424 37.4272C60.7422 36.6147 60.0894 35.9561 59.284 35.9561Z" fill="#408858"/>
<path d="M22.6294 89.779H7.43828C4.94491 89.779 2.91619 87.7325 2.91619 85.217V7.50411C2.91619 4.98868 4.94491 2.94199 7.43828 2.94199H51.2026C51.3439 2.94199 51.4831 2.95508 51.6207 2.97383V12.1484C51.6207 16.2863 54.9576 19.6526 59.059 19.6526H68.153C68.1717 19.7916 68.1845 19.932 68.1845 20.0746V45.1256C68.1845 45.9381 68.8373 46.5967 69.6427 46.5967C70.4481 46.5967 71.1009 45.9381 71.1009 45.1256V20.0748C71.1009 18.4611 70.4779 16.944 69.3469 15.8027L55.4368 1.76953C54.3058 0.628516 52.8021 0 51.2026 0H7.43828C3.33668 0 0 3.36641 0 7.50411V85.217C0 89.3547 3.33688 92.721 7.43828 92.721H22.6294C23.4348 92.721 24.0876 92.0624 24.0876 91.2499C24.0876 90.4374 23.4348 89.779 22.6294 89.779ZM66.1225 16.7106H59.0592C56.5659 16.7106 54.5371 14.6639 54.5371 12.1484V5.02266L66.1225 16.7106Z" fill="#408858"/>
<path d="M87.5526 72.018L75.1975 50.9789C74.297 49.4449 72.3374 48.9379 70.8161 49.8471L67.8109 51.6434C65.4782 53.0375 64.4922 55.8588 65.2931 58.359C64.2806 58.7291 63.1705 58.7232 62.1483 58.3246C59.7755 57.5715 57.9716 56.0565 54.9923 56.8166C49.9335 58.116 50.0872 58.051 49.6296 58.2092C46.6675 56.5078 44.887 56.0016 41.7425 57.2287L38.9396 58.3219C37.6419 58.8277 36.212 58.7078 35.0128 57.991L34.2479 57.5361C34.6212 55.2799 33.6294 52.8988 31.5292 51.6438C31.5292 51.6438 31.5292 51.6438 31.529 51.6436L28.524 49.8475C27.0069 48.941 25.0415 49.4484 24.1428 50.9789L11.7873 72.0182C10.8869 73.5518 11.3879 75.5293 12.9088 76.4381L15.9139 78.2342C16.8232 78.7778 17.8226 79.0362 18.8099 79.0362C19.9109 79.0362 20.9964 78.7143 21.9245 78.108L22.5508 78.4809L21.2286 80.3389C19.6528 82.5533 20.1535 85.6326 22.3489 87.2225C23.3641 87.9576 24.6396 88.2934 25.9586 88.0844C26.1679 89.3186 26.8381 90.4737 27.9234 91.26C28.9427 91.9983 30.2123 92.3344 31.5336 92.1245C31.7435 93.3577 32.4134 94.5118 33.4981 95.2975C34.9559 96.3532 36.7684 96.4752 38.2787 95.8245C38.6091 96.6905 39.1835 97.4725 39.9848 98.053C42.0773 99.568 44.9596 99.1729 46.5854 97.21L50.0992 99.31C52.423 100.699 55.4213 99.9272 56.7991 97.5801C57.1515 96.9801 57.3701 96.3262 57.45 95.6541L57.458 95.659C59.7782 97.0453 62.7833 96.2692 64.1579 93.9289C64.5559 93.251 64.7741 92.5157 64.8271 91.7787C66.8723 92.2975 69.1012 91.4309 70.2299 89.509C70.6003 88.8785 70.815 88.1975 70.8856 87.5121C73.0776 88.3799 75.6395 87.5412 76.8773 85.4334C77.5431 84.2996 77.7315 82.9723 77.4076 81.6955C77.2223 80.9651 76.8816 80.302 76.4138 79.742L78.3506 78.6004C79.989 79.2789 81.8588 79.1703 83.4258 78.234L86.4305 76.4379C87.9514 75.5297 88.4538 73.5526 87.5526 72.018ZM17.4003 75.7031L14.3953 73.9069C14.2617 73.827 14.2174 73.6524 14.2963 73.5176L26.6518 52.4779C26.7314 52.3426 26.9051 52.2986 27.0379 52.3783L30.0427 54.1742C31.378 54.9725 31.7958 56.7002 31.0191 58.0227L21.215 74.718C20.4325 76.0508 18.7214 76.4924 17.4003 75.7031ZM24.0495 84.8324C23.164 84.191 22.9615 82.9485 23.5976 82.0547L25.5412 79.3235C26.1603 78.4533 27.3941 78.2153 28.2945 78.8674C29.1783 79.5074 29.381 80.7533 28.7468 81.645L26.8031 84.3762C26.1686 85.2682 24.9329 85.4721 24.0495 84.8324ZM29.6242 88.8701C28.7404 88.2299 28.5377 86.9836 29.1721 86.0922L31.1157 83.3612C31.1157 83.3612 31.1157 83.3612 31.1157 83.361C31.1157 83.361 31.1157 83.3608 31.1159 83.3608L33.2607 80.3467C33.5682 79.9149 34.0237 79.6293 34.5437 79.5434C34.6518 79.5254 34.76 79.5166 34.8674 79.5166C35.2767 79.5166 35.6749 79.6451 36.0141 79.8906C36.442 80.2008 36.725 80.6602 36.8102 81.1848C36.8956 81.7096 36.7734 82.2364 36.466 82.6682L32.3774 88.4139C31.742 89.3075 30.5101 89.5119 29.6242 88.8701ZM35.1989 92.9075C34.3155 92.2676 34.1126 91.0223 34.7459 90.1309C34.746 90.1305 34.7464 90.1301 34.7466 90.1297L38.8352 84.3842C39.4693 83.4928 40.7052 83.2881 41.5886 83.928C42.4724 84.568 42.6751 85.8141 42.0407 86.7057L40.2241 89.2586C40.2241 89.2586 40.2241 89.2586 40.2239 89.2588L37.952 92.4514C37.3176 93.343 36.0828 93.5479 35.1989 92.9075ZM41.6856 95.6629C40.8024 95.0231 40.5993 93.7784 41.2322 92.8868L42.593 90.9746C43.2272 90.0828 44.463 89.8789 45.3464 90.5186C46.23 91.1584 46.4329 92.4047 45.7984 93.2963L44.4388 95.2067C43.8046 96.0985 42.569 96.3032 41.6856 95.6629ZM74.3689 83.934C73.814 84.8787 72.6013 85.192 71.6647 84.6325C70.0787 83.6846 59.8481 77.5699 58.7574 76.918C58.0643 76.5039 57.1701 76.7346 56.7596 77.4336C56.3492 78.1326 56.5779 79.035 57.2707 79.449L67.0287 85.2813L67.0289 85.2815C67.9658 85.8412 68.2782 87.061 67.7212 88.0098C67.1662 88.9549 65.9529 89.2676 65.0167 88.7084C61.4076 86.5514 58.4771 84.7998 55.2534 82.8731C54.5602 82.459 53.6661 82.6897 53.2557 83.3887C52.8453 84.0877 53.0739 84.9901 53.7668 85.4041L60.9567 89.7014L60.9582 89.7024C61.8956 90.2639 62.205 91.483 61.6492 92.4299C61.0941 93.375 59.8812 93.6881 58.9444 93.1284L55.0858 90.8223C55.0854 90.8221 55.0848 90.8219 55.0844 90.8215C55.084 90.8213 55.0837 90.8211 55.0833 90.8209L52.2674 89.1377C51.5743 88.7235 50.68 88.9541 50.2696 89.6534C49.8592 90.3524 50.0878 91.2547 50.7807 91.6688L53.5972 93.3522C53.5976 93.3524 53.598 93.3528 53.5984 93.353C54.5352 93.9127 54.8477 95.1323 54.2907 96.0811C53.7356 97.0262 52.5227 97.3393 51.5859 96.7795L48.3003 94.816C49.7088 92.6235 49.1731 89.6688 47.0471 88.1293C46.4228 87.6774 45.7276 87.3959 45.0165 87.275C45.7708 85.2405 45.1205 82.8651 43.2892 81.5389C42.205 80.7533 40.907 80.4821 39.6819 80.6758C39.4639 79.3897 38.7667 78.2631 37.7149 77.5016C35.7367 76.0694 33.0484 76.3446 31.3879 78.0393C31.0504 77.4414 30.5846 76.9051 29.9953 76.4783C28.3515 75.2881 26.2172 75.277 24.5898 76.2795L23.9217 75.8817L33.0925 60.2647L33.5291 60.5244C35.4573 61.6768 37.8103 61.917 39.991 61.0662L42.794 59.9731C44.3979 59.3477 45.2825 59.3068 46.869 60.0621C45.831 61.2387 45.2147 62.7834 45.2147 64.4483V70.9707C45.2147 72.7031 46.6108 74.1135 48.3266 74.1147H48.3309C50.052 74.1147 51.6705 73.4387 52.888 72.2111C53.5978 71.4955 54.1217 70.6424 54.4357 69.7111C56.3184 70.836 71.8736 80.1287 73.6769 81.2067C74.1305 81.4778 74.4523 81.9108 74.583 82.426C74.7137 82.9407 74.6376 83.4764 74.3689 83.934ZM84.9448 73.9069L81.9396 75.7031C80.6184 76.4922 78.9074 76.0502 78.1253 74.7182L73.53 66.893C73.1194 66.194 72.2246 65.9633 71.5322 66.377C70.8394 66.791 70.6105 67.6934 71.0208 68.3924L75.616 76.2178C75.7026 76.3651 75.7965 76.5051 75.8936 76.6416L74.6161 77.3946C74.3578 77.5488 74.1094 77.7188 73.8719 77.9033L54.0622 66.0684C53.0917 65.4889 51.8612 66.1953 51.8612 67.334C51.8459 67.4219 52.0118 68.934 50.8264 70.1295C50.1597 70.8016 49.2733 71.1719 48.3307 71.1719C48.3299 71.1719 48.3292 71.1719 48.3284 71.1719C48.2194 71.1719 48.1307 71.0813 48.1307 70.9699V64.4475C48.1307 62.7436 49.2927 61.3061 50.8642 60.9047L55.7072 59.6682C57.4645 59.2201 58.4579 60.1668 61.0891 61.0652C62.9157 61.7781 64.9019 61.7342 66.6648 60.9746L67.5449 62.4734C67.9555 63.1729 68.8499 63.4033 69.5426 62.9895C70.2355 62.5754 70.4643 61.6731 70.0541 60.974L68.3206 58.0223C67.5364 56.6867 67.9733 54.9656 69.2969 54.174L72.302 52.3781C72.4333 52.2994 72.6069 52.3397 72.6882 52.4779L85.0434 73.5172C85.1231 73.6529 85.0792 73.8266 84.9448 73.9069Z" fill="#408858"/>
</svg>
