<svg width="99" height="44" viewBox="0 0 99 44" fill="none" xmlns="http://www.w3.org/2000/svg">
<path d="M22.0712 39.3182C31.6483 39.3182 39.412 31.634 39.412 22.1551C39.412 12.6761 31.6483 4.99194 22.0712 4.99194C12.4942 4.99194 4.73047 12.6761 4.73047 22.1551C4.73047 31.634 12.4942 39.3182 22.0712 39.3182Z" fill="#B84FF6"/>
<path fill-rule="evenodd" clip-rule="evenodd" d="M39.9168 33.6616C40.0438 33.6031 40.1521 33.5114 40.2302 33.3963C40.3057 33.2806 40.3446 33.1452 40.3418 33.0075C40.3466 32.8958 40.3223 32.7848 40.2711 32.6851C40.22 32.5854 40.1438 32.5004 40.0499 32.4383C39.8046 32.292 39.5204 32.2225 39.2345 32.2389H37.8359V35.2119H39.3178C39.6223 35.2309 39.925 35.1536 40.1823 34.9913C40.2804 34.9214 40.3593 34.8286 40.4122 34.7211C40.465 34.6135 40.49 34.4947 40.485 34.3753C40.4904 34.213 40.4388 34.0538 40.339 33.925C40.2301 33.7958 40.083 33.7037 39.9184 33.6616H39.9168ZM38.5264 32.7485H39.1746C39.2958 32.7406 39.4161 32.7736 39.5158 32.8421C39.5528 32.8766 39.5824 32.9181 39.6027 32.9642C39.6229 33.0104 39.6335 33.0601 39.6336 33.1104C39.6338 33.1607 39.6236 33.2105 39.6037 33.2568C39.5837 33.303 39.5545 33.3448 39.5177 33.3795C39.4169 33.4472 39.2961 33.4794 39.1746 33.4709H38.5264V32.7488V32.7485ZM39.2904 34.7023H38.5264V33.9518H39.2904C39.6166 33.9518 39.7797 34.075 39.7797 34.3213C39.7797 34.5761 39.6166 34.7035 39.2904 34.7035V34.7023ZM41.5626 34.6599V33.9733H42.9575V33.4381H41.5626V32.7909H43.1419V32.2389H40.8718V35.2119H43.1977V34.6599H41.5626V34.6599ZM43.612 35.2119H45.0368C45.3552 35.2315 45.671 35.1448 45.9338 34.9657C46.0386 34.8837 46.1221 34.778 46.1774 34.6576C46.2326 34.5371 46.2579 34.4053 46.2512 34.2732C46.2587 34.1503 46.2367 34.0275 46.1871 33.9146C46.1376 33.8017 46.0618 33.702 45.9659 33.6235C45.7227 33.4578 45.43 33.3784 45.1354 33.3982H44.3031V32.7866H46.0372V32.2389H43.6123V35.2119H43.612ZM44.3031 34.7023V33.9037H44.9967C45.3629 33.9037 45.546 34.034 45.546 34.2944C45.5494 34.3527 45.5383 34.4108 45.5136 34.4638C45.4889 34.5168 45.4514 34.5629 45.4044 34.5981C45.2832 34.675 45.1404 34.7115 44.9967 34.7023H44.3031V34.7023ZM46.5249 33.9718H47.7394V33.4413H46.5249V33.9718ZM49.5328 32.2389H48.2325V35.2119H48.9277V34.3921H49.5328C49.7706 34.3977 50.0069 34.3535 50.2264 34.2626C50.4115 34.1852 50.5691 34.0548 50.6788 33.8881C50.7828 33.715 50.8377 33.5173 50.8377 33.3158C50.8377 33.1144 50.7828 32.9167 50.6788 32.7435C50.5681 32.5777 50.4108 32.4476 50.2264 32.369C50.0073 32.2768 49.7708 32.232 49.5328 32.2377V32.2377V32.2389ZM49.4943 33.8304H48.9268V32.7981H49.4943C49.664 32.7865 49.8325 32.8338 49.9707 32.932C50.0258 32.9794 50.0692 33.0388 50.0975 33.1054C50.1257 33.1721 50.1381 33.2443 50.1337 33.3164C50.1377 33.3879 50.1251 33.4593 50.0968 33.5252C50.0686 33.5911 50.0254 33.6497 49.9707 33.6965C49.8325 33.7947 49.664 33.8421 49.4943 33.8304V33.8304ZM53.2629 35.2106H53.9925L52.6494 32.2377H51.9627L50.6236 35.2106H51.3362L51.6023 34.5737H52.9968L53.2629 35.2106ZM51.8252 34.051L52.3016 32.913L52.778 34.051H51.8252ZM56.0519 33.6603C56.1796 33.6063 56.2895 33.5181 56.3694 33.4057C56.4469 33.2946 56.4875 33.1624 56.4855 33.0275C56.4872 32.8594 56.4243 32.697 56.3095 32.5731C56.1803 32.4355 56.0174 32.3331 55.8366 32.2757C55.628 32.2059 55.4089 32.1714 55.1887 32.1737C54.8306 32.1712 54.4773 32.2543 54.1586 32.4158L54.3689 32.951C54.4942 32.8805 54.6284 32.827 54.7681 32.7919C54.9012 32.7573 55.0382 32.7395 55.1757 32.7388C55.3272 32.7327 55.4775 32.7664 55.6115 32.8365C55.6626 32.8616 55.7055 32.9003 55.7355 32.9484C55.7654 32.9964 55.7811 33.0519 55.7808 33.1083C55.7825 33.1539 55.7725 33.1991 55.7519 33.2399C55.7313 33.2807 55.7007 33.3157 55.6629 33.3417C55.5653 33.4037 55.4504 33.4336 55.3347 33.4269H54.6524V33.9449H55.386C55.5176 33.9387 55.6484 33.968 55.7644 34.0298C55.8084 34.0549 55.8446 34.0915 55.8691 34.1355C55.8937 34.1794 55.9057 34.2292 55.9037 34.2795C55.9035 34.3451 55.8842 34.4092 55.8481 34.4643C55.812 34.5193 55.7606 34.5628 55.7001 34.5896C55.5412 34.6685 55.3647 34.7065 55.1871 34.7001C55.0298 34.699 54.8733 34.678 54.7214 34.6377C54.5682 34.5988 54.4215 34.5379 54.286 34.457L54.0713 34.9498C54.2532 35.054 54.4489 35.1326 54.6527 35.1835C54.8541 35.234 55.061 35.2597 55.2688 35.2599C55.4971 35.2623 55.7241 35.2263 55.9403 35.1535C56.1265 35.0946 56.2942 34.9893 56.4274 34.8477C56.5459 34.719 56.6102 34.5505 56.6075 34.3765C56.6103 34.2175 56.5581 34.0624 56.4596 33.9368C56.3538 33.806 56.2112 33.7091 56.0497 33.6585V33.6585L56.0519 33.6603ZM58.2961 32.2377H56.9959V35.2106H57.6911V34.3909H58.298C58.5359 34.3964 58.7722 34.3523 58.9917 34.2614C59.1769 34.1839 59.3345 34.0535 59.4444 33.8869C59.5293 33.7613 59.5853 33.6188 59.6083 33.4694C59.6314 33.3201 59.6209 33.1675 59.5777 33.0226C59.5345 32.8777 59.4596 32.744 59.3583 32.6309C59.257 32.5178 59.1319 32.4282 58.9917 32.3684C58.7726 32.2762 58.5361 32.2314 58.298 32.237V32.237L58.2961 32.2377ZM58.2577 33.8292H57.6902V32.7969H58.2577C58.4274 32.7852 58.5959 32.8326 58.7341 32.9307C58.7892 32.9782 58.8326 33.0375 58.8608 33.1042C58.8891 33.1708 58.9015 33.243 58.8971 33.3152C58.9011 33.3867 58.8885 33.4581 58.8602 33.524C58.832 33.5899 58.7888 33.6485 58.7341 33.6953C58.5959 33.7935 58.4274 33.8408 58.2577 33.8292V33.8292ZM62.0263 35.2094H62.7559L61.4128 32.2364H60.7261L59.387 35.2094H60.0996L60.3657 34.5725H61.7602L62.0263 35.2094ZM60.5886 34.0498L61.065 32.9117L61.5414 34.0498H60.5886ZM63.0125 35.2094H64.4373C64.7557 35.229 65.0716 35.1423 65.3343 34.9632C65.4391 34.8812 65.5227 34.7755 65.5779 34.6551C65.6331 34.5346 65.6585 34.4028 65.6518 34.2707C65.6592 34.1478 65.6373 34.025 65.5877 33.9121C65.5381 33.7992 65.4623 33.6995 65.3664 33.621C65.1232 33.4554 64.8305 33.376 64.536 33.3957H63.7033V32.7841H65.4374V32.2364H63.0128V35.2094H63.0125ZM63.7033 34.6998V33.9012H64.3985C64.7649 33.9012 64.9481 34.0315 64.9481 34.2919C64.9515 34.3502 64.9404 34.4084 64.9156 34.4614C64.8909 34.5144 64.8533 34.5604 64.8062 34.5956C64.685 34.6725 64.5422 34.7091 64.3985 34.6998H63.7033ZM67.4921 35.2615C67.785 35.2661 68.0744 35.1974 68.3333 35.0618C68.5783 34.9325 68.7832 34.7397 68.9261 34.504C69.069 34.2683 69.1444 33.9987 69.1444 33.7238C69.1444 33.449 69.069 33.1793 68.9261 32.9437C68.7832 32.708 68.5783 32.5152 68.3333 32.3859C68.0724 32.2546 67.7838 32.1862 67.4912 32.1862C67.1985 32.1862 66.9099 32.2546 66.649 32.3859C66.4057 32.5124 66.2023 32.7027 66.061 32.936C65.9218 33.1757 65.8485 33.4474 65.8485 33.7238C65.8485 34.0003 65.9218 34.2719 66.061 34.5116C66.2023 34.745 66.4057 34.9353 66.649 35.0618C66.9087 35.1973 67.1986 35.2659 67.4921 35.2615V35.2615V35.2615ZM67.4921 34.6751C67.3239 34.6775 67.1582 34.6357 67.0116 34.5541C66.8697 34.4747 66.753 34.3578 66.6746 34.2164C66.5944 34.0643 66.5526 33.8953 66.5526 33.7237C66.5526 33.5521 66.5944 33.3831 66.6746 33.2309C66.7532 33.0897 66.8699 32.9728 67.0116 32.8933C67.1592 32.8141 67.3244 32.7727 67.4923 32.7727C67.6601 32.7727 67.8253 32.8141 67.9729 32.8933C68.1146 32.9728 68.2311 33.0897 68.3096 33.2309C68.39 33.383 68.432 33.5521 68.432 33.7237C68.432 33.8953 68.39 34.0644 68.3096 34.2164C68.2313 34.3578 68.1147 34.4747 67.9729 34.5541C67.8263 34.6358 67.6604 34.6775 67.4921 34.6751V34.6751ZM71.7828 32.2374H69.1779V32.7991H70.1348V35.2116H70.8215V32.7991H71.7828V32.2374ZM74.0069 35.2103H74.7951L73.7824 33.6728L74.7648 32.2374H74.0311L73.2429 33.4391H72.7476V32.2374H72.0565V35.2103H72.7476V34.0142H73.2281L74.0069 35.2103ZM77.534 35.2103H78.2636L76.9204 32.2374H76.2337L74.8947 35.2103H75.6073L75.8734 34.5734H77.2679L77.534 35.2103ZM76.0963 34.0507L76.5727 32.9126L77.0491 34.0507H76.0963ZM79.6625 35.2103H80.3189L81.7525 33.2778V35.2103H82.4389V32.2374H81.7866L80.3533 34.174V32.2374H79.6625V35.2103V35.2103ZM85.1576 35.2624C85.3969 35.2689 85.6349 35.2269 85.8572 35.1392C86.0304 35.0714 86.1802 34.9556 86.2885 34.8056C86.3831 34.6687 86.4332 34.5065 86.432 34.3406C86.441 34.1694 86.3848 34.0012 86.2744 33.8691C86.1724 33.7548 86.0433 33.6673 85.8988 33.6145C85.7149 33.5495 85.5272 33.4955 85.3367 33.4528C85.1682 33.4207 85.0035 33.3717 84.8452 33.3065C84.798 33.2896 84.7572 33.2587 84.7284 33.2181C84.6996 33.1774 84.6842 33.1289 84.6844 33.0793C84.684 33.0298 84.6966 32.981 84.721 32.9377C84.7455 32.8945 84.7809 32.8583 84.8237 32.8328C84.9554 32.7612 85.1052 32.7287 85.255 32.7391C85.5484 32.7435 85.8356 32.824 86.0877 32.9726L86.3021 32.4502C86.1533 32.3605 85.9911 32.2946 85.8216 32.2548C85.6377 32.2095 85.4489 32.1866 85.2594 32.1868C85.0209 32.1802 84.7835 32.2222 84.562 32.3101C84.39 32.3776 84.2416 32.4935 84.1351 32.6433C84.0413 32.7817 83.9918 32.9448 83.9933 33.1114C83.9847 33.2839 84.0409 33.4534 84.1509 33.5873C84.2518 33.7039 84.381 33.793 84.5264 33.8463C84.7103 33.9113 84.8981 33.9652 85.0886 34.0077C85.2374 34.0416 85.3554 34.0728 85.4426 34.1013C85.5208 34.1248 85.5937 34.1629 85.6573 34.2136C85.6839 34.2348 85.7053 34.2616 85.7197 34.2922C85.7342 34.3228 85.7415 34.3562 85.7409 34.3899C85.7407 34.4376 85.7274 34.4843 85.7025 34.5251C85.6776 34.5659 85.6419 34.5992 85.5993 34.6215C85.4639 34.6886 85.3128 34.7186 85.1617 34.7085C84.9809 34.7081 84.8013 34.6795 84.6295 34.6237C84.4652 34.5735 84.3101 34.4976 84.1701 34.3987L83.9343 34.9167C84.0953 35.0318 84.2763 35.1164 84.4684 35.1663C84.6923 35.2305 84.9242 35.2628 85.1573 35.2621V35.2621L85.1576 35.2624ZM90.2189 35.2113L90.2104 32.2383H89.6394L88.5324 34.0857L87.4078 32.2383H86.8315V35.2113H87.4835V33.4656L88.3634 34.897H88.6765L89.5593 33.4275L89.5637 35.2113H90.2161H90.2189ZM94.2098 35.2113L94.2013 32.2383H93.6303L92.5233 34.0857L91.399 32.2383H90.8239V35.2113H91.4763V33.4656L92.3559 34.897H92.669L93.5518 33.4275L93.5562 35.2113H94.2092H94.2098Z" fill="white"/>
<path fill-rule="evenodd" clip-rule="evenodd" d="M38.8883 19.1744V17.8856H34.1445V29.833H39.1324V24.5262C39.1324 22.808 39.9857 21.9488 41.6925 21.9486C42.062 21.9511 42.4308 21.9803 42.796 22.0359V17.6671C41.0745 17.6671 39.7724 18.1696 38.8896 19.1744H38.8883ZM50.2938 30.0514C51.5506 30.0731 52.7947 29.7999 53.9244 29.2541C54.9465 28.7621 55.81 27.9982 56.4183 27.0479C57.0032 26.0808 57.3121 24.9748 57.3121 23.8477C57.3121 22.7206 57.0032 21.6147 56.4183 20.6476C55.8115 19.6987 54.9473 18.938 53.9244 18.4523C52.7895 17.9342 51.5546 17.6659 50.3049 17.6659C49.0551 17.6659 47.8202 17.9342 46.6854 18.4523C45.6606 18.9396 44.7932 19.6997 44.1804 20.6476C43.5885 21.6122 43.2755 22.7192 43.2755 23.8477C43.2755 24.9763 43.5885 26.0833 44.1804 27.0479C44.7947 27.9972 45.6614 28.7605 46.6854 29.2541C47.8077 29.7983 49.0443 30.0716 50.2938 30.0514V30.0514ZM50.2938 26.2069C50.0264 26.2139 49.7607 26.1617 49.5163 26.054C49.2719 25.9462 49.055 25.7858 48.8813 25.5843C48.4875 25.0926 48.291 24.4741 48.3296 23.8477C48.2896 23.2245 48.4864 22.609 48.8813 22.1221C49.0614 21.9292 49.2799 21.7753 49.523 21.67C49.766 21.5648 50.0285 21.5104 50.2938 21.5104C50.5592 21.5104 50.8216 21.5648 51.0647 21.67C51.3078 21.7753 51.5262 21.9292 51.7063 22.1221C52.1011 22.6091 52.2979 23.2246 52.2581 23.8477C52.2968 24.4746 52.1002 25.0935 51.706 25.5856C51.5323 25.787 51.3154 25.9474 51.071 26.0551C50.8266 26.1629 50.5609 26.2151 50.2935 26.2081V26.2081L50.2938 26.2069ZM67.0355 17.6659C66.3501 17.6597 65.6694 17.7782 65.0272 18.0154C64.4135 18.2457 63.8567 18.6032 63.394 19.0639V17.8843H58.6489V29.833H63.6368V24.2203C63.6368 23.3903 63.8096 22.7823 64.1554 22.3964C64.3243 22.2065 64.5337 22.0561 64.7684 21.956C65.0031 21.8559 65.2573 21.8086 65.5127 21.8175C66.4983 21.8175 66.9912 22.5019 66.9914 23.8708V29.833H71.9789V23.0189C71.9789 21.2277 71.5265 19.8879 70.6216 18.9996C69.7167 18.1113 68.5213 17.6671 67.0352 17.6671L67.0355 17.6659ZM82.2084 13.6248V18.6926C81.5022 18.0081 80.4796 17.6659 79.1407 17.6659C78.1158 17.657 77.1068 17.917 76.2164 18.4195C75.3189 18.9291 74.5846 19.6786 74.0977 20.5821C73.5592 21.5866 73.2895 22.7108 73.3142 23.8477C73.2904 24.988 73.56 26.1156 74.0977 27.1243C74.5821 28.0325 75.3168 28.7861 76.2164 29.2978C77.1068 29.8003 78.1158 30.0603 79.1407 30.0514C80.6267 30.0514 81.7302 29.651 82.4512 28.85V29.833H87.1962V13.626H82.2084V13.6248ZM80.3324 26.2069C80.065 26.2139 79.7994 26.1617 79.555 26.054C79.3106 25.9462 79.0936 25.7858 78.92 25.5843C78.5261 25.0926 78.3296 24.4741 78.3682 23.8477C78.3282 23.2245 78.525 22.609 78.92 22.1221C79.1 21.9292 79.3185 21.7753 79.5616 21.67C79.8047 21.5648 80.0671 21.5104 80.3324 21.5104C80.5978 21.5104 80.8602 21.5648 81.1033 21.67C81.3464 21.7753 81.5649 21.9292 81.7449 22.1221C82.1397 22.6091 82.3365 23.2246 82.2967 23.8477C82.3352 24.4741 82.1387 25.0925 81.7449 25.5843C81.5713 25.7857 81.3543 25.9462 81.1099 26.0539C80.8655 26.1616 80.5999 26.2139 80.3324 26.2069V26.2069V26.2069ZM89.2317 29.833H94.2196V17.8856H89.2317V29.833ZM91.7256 16.9232C92.5215 16.9633 93.3029 16.7016 93.9106 16.1914C94.1761 15.958 94.3868 15.6698 94.5279 15.3471C94.669 15.0245 94.737 14.6752 94.7272 14.3238C94.7356 13.99 94.6663 13.6588 94.5247 13.3558C94.3831 13.0528 94.173 12.7861 93.9106 12.5763C93.2875 12.0992 92.5123 11.859 91.7256 11.8991C90.9374 11.8625 90.1632 12.1153 89.5517 12.609C89.2918 12.8335 89.0835 13.1105 88.9407 13.4214C88.798 13.7322 88.7241 14.0697 88.7241 14.4111C88.7241 14.7526 88.798 15.0901 88.9407 15.4009C89.0835 15.7118 89.2918 15.9888 89.5517 16.2133C90.1632 16.7071 90.9374 16.9599 91.7256 16.9232Z" fill="white"/>
<path fill-rule="evenodd" clip-rule="evenodd" d="M25.6303 26.4624C24.8784 26.7715 24.0719 26.9293 23.2577 26.9265C22.6372 26.9545 22.0178 26.8522 21.4401 26.6263C20.8624 26.4004 20.3395 26.056 19.9059 25.6158C19.0687 24.7421 18.6503 23.5862 18.6508 22.1483C18.6508 20.6739 19.0738 19.5089 19.9198 18.6532C20.7658 17.7976 21.9061 17.3697 23.3407 17.3697C25.014 17.3697 26.4577 18.0706 27.6718 19.4724L31.8373 15.8407C30.8387 14.6352 29.5546 13.6925 28.0993 13.0964C26.484 12.4464 24.7527 12.1259 23.0093 12.1543C21.0529 12.1223 19.1176 12.5579 17.3676 13.4241C15.7576 14.2204 14.4085 15.4519 13.4766 16.9759C12.5358 18.5392 12.0534 20.3308 12.0833 22.1501C12.0535 23.9692 12.5359 25.7607 13.4766 27.3237C14.3998 28.839 15.7328 30.0685 17.325 30.8734C19.041 31.738 20.9449 32.1735 22.8702 32.1419C24.3729 32.1349 25.8675 31.9235 27.312 31.5137C28.7286 31.1369 30.0714 30.5277 31.2846 29.7116V21.6293H25.6303V26.4624Z" fill="white"/>
<path d="M91.9082 17.475C93.7365 17.475 95.2187 16.1477 95.2187 14.5104C95.2187 12.8732 93.7365 11.5459 91.9082 11.5459C90.0798 11.5459 88.5977 12.8732 88.5977 14.5104C88.5977 16.1477 90.0798 17.475 91.9082 17.475Z" fill="#B84FF6"/>
</svg>
