<svg width="17" height="17" viewBox="0 0 17 17" fill="none" xmlns="http://www.w3.org/2000/svg">
<path d="M4.78054 3.20435C4.72358 3.14561 4.66662 3.08776 4.6101 3.03035C4.55269 2.97203 4.49573 2.91417 4.43968 2.85632C4.22082 2.63028 4.01271 2.41859 3.79385 2.21407L4.78054 3.20435ZM4.78054 3.20435L5.76005 4.18386C6.14038 4.56419 6.14038 4.91581 5.76005 5.29613C5.72524 5.33095 5.69083 5.36576 5.65655 5.40044C5.58837 5.46941 5.52072 5.53785 5.45149 5.6047M4.78054 3.20435L5.45149 5.6047M5.45149 5.6047C5.1501 5.91326 4.86306 6.2003 4.55091 6.48016M5.45149 5.6047L4.55091 6.48016M4.55091 6.48016C4.54837 6.48271 4.54582 6.4848 4.54344 6.48676C4.5391 6.49033 4.53528 6.49347 4.53297 6.4981C4.2244 6.80667 4.28181 7.10806 4.34639 7.31257M4.55091 6.48016L4.34639 7.31257M4.34639 7.31257L4.35716 7.34486L4.34639 7.31257ZM9.60789 11.4697L9.60719 11.4694C9.47757 11.4046 9.35786 11.3447 9.25619 11.2816C8.19953 10.6104 7.23842 9.73531 6.31571 8.60164C5.87929 8.04998 5.58397 7.58515 5.36852 7.11676C5.62528 6.88032 5.86584 6.63621 6.0989 6.39971C6.12462 6.37361 6.15024 6.3476 6.17579 6.32171C6.22615 6.27134 6.27649 6.22011 6.32664 6.16906L6.32674 6.16896C6.377 6.11781 6.42707 6.06684 6.47712 6.01679C6.86163 5.63228 7.05687 5.18772 7.05687 4.74C7.05687 4.29228 6.86163 3.84772 6.47712 3.46321L5.49761 2.48369C5.38628 2.37236 5.27204 2.25812 5.16505 2.14399L5.16505 2.14399L5.1645 2.14342C4.9493 1.92104 4.72266 1.69079 4.48858 1.47467C4.13255 1.12259 3.70435 0.933398 3.25206 0.933398C2.79965 0.933398 2.36427 1.12269 1.99753 1.47476L1.99752 1.47475L1.9968 1.47547L1.99321 1.47906L1.98962 1.48265L1.98947 1.48281L0.769716 2.71332C0.769687 2.71335 0.769657 2.71338 0.769628 2.71341C0.302127 3.18095 0.0351151 3.7516 -0.0233231 4.41268L-0.0233493 4.41299C-0.110395 5.47204 0.201481 6.45653 0.438861 7.09674C1.02242 8.67091 1.89391 10.1289 3.1921 11.6896L3.1922 11.6897C4.76817 13.5715 6.66464 15.0578 8.83112 16.1051L8.83147 16.1052C9.65789 16.4969 10.7665 16.9632 12.0071 17.0428L12.0079 17.0428C12.0831 17.0464 12.1632 17.0501 12.2363 17.0501C13.0786 17.0501 13.7881 16.7468 14.3434 16.1441L14.3449 16.1455L14.3495 16.1363C14.3508 16.135 14.3533 16.1324 14.3559 16.1294C14.3578 16.1272 14.3599 16.1244 14.362 16.1211C14.5323 15.9153 14.7268 15.7272 14.934 15.5268C14.9504 15.511 14.9669 15.495 14.9835 15.479C15.1379 15.3317 15.2964 15.1769 15.4513 15.0147C15.814 14.6373 16.0071 14.1948 16.0071 13.7386C16.0071 13.2786 15.8102 12.8393 15.4397 12.4725C15.4397 12.4725 15.4397 12.4724 15.4397 12.4724L13.4708 10.4963C13.4707 10.4962 13.4706 10.4961 13.4705 10.496C13.1145 10.1255 12.6823 9.92484 12.222 9.92484C11.7653 9.92484 11.3297 10.1219 10.9595 10.492L9.85201 11.5961C9.8008 11.5689 9.74954 11.5426 9.69935 11.5169C9.66837 11.501 9.6378 11.4853 9.60789 11.4697ZM14.6891 14.2682C14.6851 14.271 14.6807 14.2747 14.6769 14.2797C14.676 14.281 14.6748 14.2827 14.6735 14.2848C14.5625 14.4038 14.4491 14.514 14.3287 14.631C14.3018 14.6572 14.2745 14.6838 14.2468 14.7108C14.0136 14.9333 13.7756 15.1676 13.5517 15.4311C13.1993 15.8075 12.786 15.9849 12.2399 15.9849C12.1858 15.9849 12.1301 15.9849 12.0782 15.9814L12.0781 15.9814C11.0225 15.9139 10.0395 15.5013 9.2979 15.1467C7.27372 14.1667 5.49618 12.7755 4.01885 11.0121C2.79821 9.54085 1.98341 8.18227 1.44398 6.72473L1.44393 6.72459C1.11184 5.83546 0.992057 5.14707 1.04506 4.50021C1.07995 4.09216 1.2363 3.75517 1.52573 3.46575L2.74866 2.24281C2.91857 2.08349 3.0933 2.00215 3.25924 2.00215C3.46522 2.00215 3.63602 2.12696 3.74773 2.23866L3.75311 2.24404L3.75849 2.24943L3.75847 2.24945L3.75971 2.2506C3.97761 2.45422 4.18499 2.66515 4.40376 2.8911L4.40377 2.89111C4.45955 2.94868 4.5162 3.00623 4.57313 3.06407L4.5745 3.06546C4.63103 3.12288 4.68785 3.18059 4.74464 3.23916L4.74464 3.23916L4.74518 3.23971L5.7247 4.21922C5.91011 4.40463 5.9953 4.57563 5.9953 4.74C5.9953 4.90437 5.91011 5.07537 5.7247 5.26078C5.68943 5.29604 5.6548 5.33108 5.62043 5.36585C5.55252 5.43456 5.4856 5.50226 5.41676 5.56873L5.41674 5.56871L5.41572 5.56976C5.11452 5.87813 4.82842 6.16421 4.51753 6.44293L4.51748 6.44288L4.51555 6.44481L4.51345 6.44667L4.50805 6.45117C4.50468 6.45406 4.49893 6.45917 4.49359 6.46678C4.33467 6.62726 4.26745 6.78857 4.25008 6.93861C4.23273 7.08855 4.26569 7.22305 4.29871 7.32763L4.29871 7.32763L4.29896 7.32838L4.30972 7.36067L4.30961 7.36071L4.31094 7.36394C4.56795 7.98655 4.92953 8.57178 5.47679 9.26666L5.47651 9.26688L5.48072 9.27108L5.48247 9.27284C6.47516 10.4953 7.5227 11.4494 8.67905 12.1806C8.82828 12.2753 8.98084 12.3516 9.12376 12.423L9.12473 12.4235C9.25444 12.4884 9.37422 12.5483 9.47593 12.6114L9.47582 12.6116L9.47994 12.6137C9.48461 12.616 9.48974 12.6192 9.49733 12.6239L9.49807 12.6244C9.50475 12.6285 9.51366 12.6341 9.52299 12.6388C9.65098 12.7028 9.77341 12.7338 9.90057 12.7338C10.2191 12.7338 10.4181 12.5347 10.4807 12.4721L10.4813 12.4715L11.7084 11.2445C11.8281 11.1247 12.0095 10.99 12.2148 10.99C12.4164 10.99 12.587 11.1177 12.6945 11.2356L12.6945 11.2357L12.6961 11.2373L12.6961 11.2373L12.6962 11.2373L12.6962 11.2373L12.6962 11.2374L12.6962 11.2374L12.6962 11.2374L12.6963 11.2374L12.6963 11.2374L12.6963 11.2375L12.6963 11.2375L12.6963 11.2375L12.6964 11.2375L12.6964 11.2375L12.6964 11.2376L12.6964 11.2376L12.6964 11.2376L12.6965 11.2376L12.6965 11.2376L12.6965 11.2377L12.6965 11.2377L12.6965 11.2377L12.6966 11.2377L12.6966 11.2377L12.6966 11.2378L12.6966 11.2378L12.6966 11.2378L12.6967 11.2378L12.6967 11.2378L12.6967 11.2379L12.6967 11.2379L12.6967 11.2379L12.6967 11.2379L12.6968 11.2379L12.6968 11.238L12.6968 11.238L12.6968 11.238L12.6968 11.238L12.6969 11.238L12.6969 11.238L12.6969 11.2381L12.6969 11.2381L12.6969 11.2381L12.6969 11.2381L12.697 11.2381L12.697 11.2381L12.697 11.2382L12.697 11.2382L12.697 11.2382L12.6971 11.2382L12.6971 11.2382L12.6971 11.2383L12.6971 11.2383L12.6971 11.2383L12.6971 11.2383L12.6972 11.2383L12.6972 11.2383L12.6972 11.2384L12.6972 11.2384L12.6972 11.2384L12.6972 11.2384L12.6973 11.2384L12.6973 11.2384L12.6973 11.2385L12.6973 11.2385L12.6973 11.2385L12.6973 11.2385L12.6974 11.2385L12.6974 11.2385L12.6974 11.2386L12.6974 11.2386L12.6974 11.2386L12.6974 11.2386L12.6975 11.2386L12.6975 11.2386L12.6975 11.2387L12.6975 11.2387L12.6975 11.2387L12.6975 11.2387L12.6975 11.2387L12.6976 11.2387L12.6976 11.2387L12.6976 11.2388L12.6976 11.2388L12.6976 11.2388L12.6976 11.2388L12.6977 11.2388L12.6977 11.2388L12.6977 11.2388L12.6977 11.2389L12.6977 11.2389L12.6977 11.2389L12.6977 11.2389L12.6978 11.2389L12.6978 11.2389L12.6978 11.239L12.6978 11.239L12.6978 11.239L12.6978 11.239L12.6978 11.239L12.6979 11.239L12.6979 11.239L12.6979 11.2391L12.6979 11.2391L12.6979 11.2391L12.6979 11.2391L12.6979 11.2391L12.698 11.2391L12.698 11.2391L12.698 11.2392L12.698 11.2392L12.698 11.2392L12.698 11.2392L12.698 11.2392L12.6981 11.2392L12.6981 11.2392L12.6981 11.2393L12.6981 11.2393L12.6981 11.2393L12.6981 11.2393L12.6981 11.2393L12.6982 11.2393L12.6982 11.2393L12.6982 11.2393L12.6982 11.2394L12.6982 11.2394L12.6982 11.2394L12.6982 11.2394L12.6982 11.2394L12.6983 11.2394L12.6983 11.2394L12.6983 11.2395L12.6983 11.2395L12.6983 11.2395L12.6983 11.2395L12.6983 11.2395L12.6983 11.2395L12.6984 11.2395L12.6984 11.2395L12.6984 11.2396L12.6984 11.2396L12.6984 11.2396L12.6984 11.2396L12.6984 11.2396L12.6985 11.2396L12.6985 11.2396L12.6985 11.2396L12.6985 11.2397L12.6985 11.2397L12.6985 11.2397L12.6985 11.2397L12.6985 11.2397L12.6985 11.2397L12.6986 11.2397L12.6986 11.2397L12.6986 11.2398L12.6986 11.2398L12.6986 11.2398L12.6986 11.2398L12.6986 11.2398L12.6986 11.2398L12.6987 11.2398L12.6987 11.2398L12.6987 11.2398L12.6987 11.2399L12.6987 11.2399L12.6987 11.2399L12.6987 11.2399L12.6987 11.2399L12.6988 11.2399L12.6988 11.2399L12.6988 11.2399L12.6988 11.24L12.6988 11.24L12.6988 11.24L12.6988 11.24L12.6988 11.24L12.6988 11.24L12.6989 11.24L12.6989 11.24L12.6989 11.24L12.6989 11.2401L12.6989 11.2401L12.6989 11.2401L12.6989 11.2401L12.6989 11.2401L12.6989 11.2401L12.699 11.2401L12.699 11.2401L12.699 11.2401L12.699 11.2402L12.699 11.2402L12.699 11.2402L12.699 11.2402L12.699 11.2402L12.699 11.2402L12.6991 11.2402L12.6991 11.2402L12.6991 11.2402L12.6991 11.2403L12.6991 11.2403L12.6991 11.2403L12.6991 11.2403L12.6991 11.2403L12.6991 11.2403L12.6992 11.2403L12.6992 11.2403L12.6992 11.2403L12.6992 11.2404L12.6992 11.2404L12.6992 11.2404L12.6992 11.2404L12.6992 11.2404L12.6992 11.2404L12.6993 11.2404L12.6993 11.2404L12.6993 11.2404L12.6993 11.2405L12.6993 11.2405L12.6993 11.2405L12.6993 11.2405L12.6993 11.2405L12.6993 11.2405L12.6994 11.2405L12.6994 11.2405L12.6994 11.2405L12.6994 11.2406L12.6994 11.2406L12.6994 11.2406L12.6994 11.2406L12.6994 11.2406L12.6994 11.2406L12.6994 11.2406L12.6995 11.2406L12.6995 11.2406L12.6995 11.2406L12.6995 11.2407L12.6995 11.2407L12.6995 11.2407L12.6995 11.2407L12.6995 11.2407L12.6995 11.2407L12.6996 11.2407L12.6996 11.2407L12.6996 11.2407L12.6996 11.2408L12.6996 11.2408L12.6996 11.2408L12.6996 11.2408L12.6996 11.2408L12.6996 11.2408L12.6997 11.2408L12.6997 11.2408L12.6997 11.2408L12.6997 11.2408L12.6997 11.2409L12.6997 11.2409L12.6997 11.2409L12.6997 11.2409L12.6997 11.2409L12.6997 11.2409L12.6998 11.2409L12.6998 11.2409L12.6998 11.2409L12.6998 11.241L12.6998 11.241L12.6998 11.241L12.6998 11.241L12.6998 11.241L12.6998 11.241L12.6999 11.241L12.6999 11.241L12.6999 11.241L12.6999 11.241L12.6999 11.2411L12.6999 11.2411L12.6999 11.2411L12.6999 11.2411L12.6999 11.2411L12.6999 11.2411L12.7 11.2411L12.7 11.2411L12.7 11.2411L12.7 11.2412L12.7 11.2412L12.7 11.2412L12.7 11.2412L12.7 11.2412L12.7 11.2412L12.7001 11.2412L12.7001 11.2412L12.7001 11.2412L12.7001 11.2413L12.7001 11.2413L12.7001 11.2413L12.7001 11.2413L12.7001 11.2413L12.7001 11.2413L12.7001 11.2413L12.7002 11.2413L12.7002 11.2413L12.7002 11.2413L12.7002 11.2414L12.7002 11.2414L12.7002 11.2414L12.7002 11.2414L12.7002 11.2414L12.7002 11.2414L12.7003 11.2414L12.7003 11.2414L12.7003 11.2414L12.7003 11.2415L12.7003 11.2415L12.7003 11.2415L12.7003 11.2415L12.7003 11.2415L12.7003 11.2415L12.7004 11.2415L12.7004 11.2415L12.7004 11.2415L12.7004 11.2416L12.7004 11.2416L12.7004 11.2416L12.7004 11.2416L12.7004 11.2416L12.7004 11.2416L12.7005 11.2416L12.7005 11.2416L12.7005 11.2416L12.7005 11.2417L12.7005 11.2417L12.7005 11.2417L12.7005 11.2417L12.7005 11.2417L12.7005 11.2417L12.7006 11.2417L12.7006 11.2417L12.7006 11.2417L12.7006 11.2418L12.7006 11.2418L12.7006 11.2418L12.7006 11.2418L12.7006 11.2418L12.7007 11.2418L12.7007 11.2418L12.7007 11.2418L12.7007 11.2419L12.7007 11.2419L12.7007 11.2419L12.7007 11.2419L12.7007 11.2419L12.7007 11.2419L12.7008 11.2419L12.7008 11.2419L12.7008 11.242L12.7008 11.242L12.7008 11.242L12.7008 11.242L12.7008 11.242L12.7008 11.242L12.7009 11.242L12.7009 11.242L12.7009 11.242L12.7009 11.2421L12.7009 11.2421L12.7009 11.2421L12.7009 11.2421L12.7009 11.2421L12.701 11.2421L12.701 11.2421L12.701 11.2421L12.701 11.2422L12.701 11.2422L12.701 11.2422L12.701 11.2422L12.701 11.2422L12.7011 11.2422L12.7011 11.2422L12.7011 11.2422L12.7011 11.2423L12.7011 11.2423L12.7011 11.2423L12.7011 11.2423L12.7011 11.2423L12.7012 11.2423L12.7012 11.2423L12.7012 11.2424L12.7012 11.2424L12.7012 11.2424L12.7012 11.2424L12.7012 11.2424L12.7013 11.2424L12.7013 11.2424L12.7013 11.2424L12.7013 11.2425L12.7013 11.2425L12.7013 11.2425L12.7013 11.2425L12.7013 11.2425L12.7014 11.2425L12.7014 11.2425L12.7014 11.2426L12.7014 11.2426L12.7014 11.2426L12.7014 11.2426L12.7014 11.2426L12.7015 11.2426L12.7015 11.2426L12.7015 11.2427L12.7015 11.2427L12.7015 11.2427L12.7015 11.2427L12.7015 11.2427L12.7016 11.2427L12.7016 11.2427L12.7016 11.2428L12.7016 11.2428L12.7016 11.2428L12.7016 11.2428L12.7016 11.2428L12.7017 11.2428L12.7017 11.2428L12.7017 11.2429L12.7017 11.2429L12.7017 11.2429L12.7017 11.2429L12.7018 11.2429L12.7018 11.2429L12.7018 11.243L12.7018 11.243L12.7018 11.243L12.7018 11.243L12.7018 11.243L12.7019 11.243L12.7019 11.243L12.7019 11.2431L12.7019 11.2431L12.7019 11.2431L12.7019 11.2431L12.702 11.2431L12.702 11.2431L12.702 11.2432L12.702 11.2432L12.702 11.2432L12.702 11.2432L12.7021 11.2432L12.7021 11.2432L12.7021 11.2432L12.7021 11.2433L12.7021 11.2433L12.7021 11.2433L12.7021 11.2433L12.7022 11.2433L12.7022 11.2434L12.7022 11.2434L12.7022 11.2434L12.7022 11.2434L12.7023 11.2434L12.7023 11.2434L12.7023 11.2435L12.7023 11.2435L12.7023 11.2435L12.7023 11.2435L12.7024 11.2435L12.7024 11.2435L12.7024 11.2436L12.7024 11.2436L12.7024 11.2436L12.7024 11.2436L12.7025 11.2436L12.7025 11.2436L12.7025 11.2437L12.7025 11.2437L12.7025 11.2437L12.7025 11.2437L12.7026 11.2437L12.7026 11.2438L12.7026 11.2438L12.7026 11.2438L12.7026 11.2438L12.7027 11.2438L12.7027 11.2438L12.7027 11.2439L12.7027 11.2439L12.7027 11.2439L12.7028 11.2439L12.7028 11.2439L12.7028 11.244L12.7028 11.244L12.7028 11.244L12.7028 11.244L12.7029 11.244L12.7029 11.2441L12.7029 11.2441L12.7029 11.2441L12.7029 11.2441L12.703 11.2441L12.703 11.2442L12.703 11.2442L12.703 11.2442L12.703 11.2442L12.7031 11.2442L12.7031 11.2443L12.7031 11.2443L12.7031 11.2443L12.7031 11.2443L12.7032 11.2443L12.7032 11.2444L12.7032 11.2444L12.7032 11.2444L12.7032 11.2444L12.7033 11.2444L12.7033 11.2445L14.6803 13.2214L14.6804 13.2216C14.8594 13.3989 14.9428 13.5726 14.9432 13.7423C14.9436 13.9104 14.8627 14.0858 14.6891 14.2682ZM14.7192 14.3091V14.2608C14.723 14.2609 14.7272 14.2616 14.7316 14.263C14.7382 14.265 14.7452 14.2688 14.7513 14.2747C14.741 14.2861 14.7302 14.2976 14.7192 14.3091Z" fill="#408858" stroke="#408858" stroke-width="0.1"/>
<path d="M13.5119 8.24837L13.5119 8.2484L13.5137 8.24811C13.8073 8.20051 14.0007 7.923 13.9533 7.63103L13.9533 7.63064C13.7578 6.48294 13.2147 5.43663 12.3858 4.60773C11.5569 3.77883 10.5105 3.23571 9.36284 3.0402L9.36284 3.0402L9.36245 3.04014C9.07014 2.99274 8.79696 3.18643 8.7455 3.4754C8.69417 3.76361 8.88352 4.04537 9.17753 4.0932C10.1071 4.24931 10.9516 4.68922 11.6262 5.36374C12.3005 6.03813 12.737 6.88262 12.8967 7.81239C12.9403 8.07404 13.1664 8.25593 13.4232 8.25593C13.4523 8.25593 13.4784 8.25262 13.5033 8.24946C13.5062 8.24909 13.5091 8.24873 13.5119 8.24837Z" fill="#408858" stroke="#408858" stroke-width="0.1"/>
<path d="M15.9764 7.66522C16.02 7.92688 16.246 8.10878 16.5029 8.10878C16.532 8.10878 16.5581 8.10547 16.583 8.10231C16.5859 8.10194 16.5887 8.10158 16.5916 8.10122L16.5916 8.10123L16.5928 8.10105C16.8827 8.05737 17.0807 7.77993 17.0294 7.49065C16.7083 5.60745 15.8207 3.89377 14.4572 2.53025C13.0937 1.16677 11.3801 0.279236 9.49698 -0.0418732C9.20692 -0.0934255 8.93433 0.105281 8.88304 0.393295L8.88303 0.393294L8.88291 0.394057C8.83547 0.686579 9.02943 0.959654 9.32188 1.01103L9.32217 1.01108C10.9838 1.29277 12.4993 2.08076 13.7048 3.28273C14.9103 4.48817 15.6947 6.0036 15.9764 7.66522ZM15.9764 7.66522C15.9764 7.66519 15.9764 7.66517 15.9764 7.66515L16.0257 7.65693M15.9764 7.66522C15.9764 7.66524 15.9764 7.66526 15.9764 7.66529L16.0257 7.65693M16.0257 7.65693C16.0651 7.89373 16.2697 8.05878 16.5029 8.05878C16.5287 8.05878 16.5516 8.05588 16.5768 8.05269C16.5796 8.05233 16.5825 8.05197 16.5854 8.05161C16.8473 8.01214 17.0267 7.76098 16.9801 7.49906C16.6607 5.62614 15.7781 3.92186 14.4219 2.5656C13.0656 1.20935 11.3613 0.326714 9.4884 0.00738457L16.0257 7.65693Z" fill="#408858" stroke="#408858" stroke-width="0.1"/>
</svg>
