<svg width="21" height="21" viewBox="0 0 21 21" fill="none" xmlns="http://www.w3.org/2000/svg">
<rect x="0.0400391" width="20.04" height="20.04" rx="10.02" fill="#3E5950"/>
<path d="M10.5521 13.5277C6.78627 13.5277 4.63833 10.8948 4.54883 6.51367H6.43517C6.49713 9.7293 7.88779 11.0914 8.9893 11.3722V6.51367H10.7655V9.28697C11.8532 9.16762 12.996 7.90383 13.3816 6.51367H15.1578C15.0125 7.23465 14.7229 7.9173 14.3071 8.51892C13.8913 9.12055 13.3583 9.62821 12.7413 10.0101C13.43 10.3591 14.0383 10.8531 14.526 11.4594C15.0137 12.0658 15.3698 12.7707 15.5708 13.5277H13.6156C13.4352 12.8702 13.0685 12.2816 12.5615 11.8357C12.0545 11.3898 11.4297 11.1065 10.7655 11.0212V13.5277H10.5521Z" fill="white"/>
</svg>
