<svg width="21" height="21" viewBox="0 0 21 21" fill="none" xmlns="http://www.w3.org/2000/svg">
<rect x="0.160156" width="20.04" height="20.04" rx="10.02" fill="#3E5950"/>
<path fill-rule="evenodd" clip-rule="evenodd" d="M5.80245 13.5547C5.60593 13.4965 5.42662 13.3931 5.27964 13.2531C5.13267 13.1131 5.02235 12.9406 4.958 12.7503C4.59025 11.7664 4.48129 7.65797 5.18954 6.84692C5.42526 6.58308 5.75807 6.42065 6.11572 6.39486C8.01575 6.19543 13.8861 6.22202 14.5603 6.46134C14.7499 6.5214 14.9232 6.62257 15.067 6.75727C15.2109 6.89197 15.3217 7.05671 15.3911 7.23915C15.7929 8.25628 15.8065 11.9525 15.3366 12.9298C15.212 13.1842 15.0033 13.3902 14.7442 13.5148C14.0359 13.8605 6.74225 13.8538 5.80245 13.5547ZM8.81934 11.6268L12.2244 9.89832L8.81934 8.15656V11.6268Z" fill="white"/>
</svg>
