<svg width="30" height="31" viewBox="0 0 30 31" fill="none" xmlns="http://www.w3.org/2000/svg">
<rect y="0.5" width="30" height="30" rx="15" fill="white"/>
<path fill-rule="evenodd" clip-rule="evenodd" d="M8.44687 20.7926C8.15267 20.7056 7.88424 20.5507 7.66422 20.3411C7.4442 20.1316 7.27905 19.8734 7.18271 19.5884C6.63219 18.1155 6.46907 11.9652 7.52933 10.7511C7.88221 10.3561 8.38042 10.1129 8.91583 10.0743C11.7602 9.77576 20.5481 9.81557 21.5574 10.1738C21.8413 10.2637 22.1006 10.4152 22.316 10.6168C22.5314 10.8185 22.6973 11.0651 22.8012 11.3382C23.4027 12.8609 23.423 18.3942 22.7196 19.8571C22.533 20.2379 22.2206 20.5464 21.8327 20.7329C20.7724 21.2504 9.85375 21.2405 8.44687 20.7926ZM12.9632 17.9065L18.0606 15.319L12.9632 12.7116V17.9065Z" fill="#3E5950"/>
</svg>
