<svg width="30" height="31" viewBox="0 0 30 31" fill="none" xmlns="http://www.w3.org/2000/svg">
<rect y="0.5" width="30" height="30" rx="15" fill="white"/>
<path d="M15.7369 20.75C10.0995 20.75 6.88398 16.8086 6.75 10.25H9.57386C9.66661 15.0638 11.7484 17.1029 13.3974 17.5233V10.25H16.0564V14.4017C17.6847 14.223 19.3955 12.3311 19.9727 10.25H22.6316C22.4142 11.3293 21.9806 12.3512 21.3582 13.2519C20.7358 14.1525 19.9378 14.9125 19.0142 15.4842C20.0452 16.0067 20.9557 16.7461 21.6859 17.6538C22.416 18.5615 22.9491 19.6168 23.25 20.75H20.3231C20.053 19.7657 19.504 18.8846 18.745 18.2171C17.986 17.5496 17.0507 17.1255 16.0564 16.9977V20.75H15.7369Z" fill="#3E5950"/>
</svg>
