<svg width="21" height="21" viewBox="0 0 21 21" fill="none" xmlns="http://www.w3.org/2000/svg">
<rect x="0.0800781" width="20.04" height="20.04" rx="10.02" fill="#3E5950"/>
<path d="M10.0998 5.91519C11.4278 5.91519 11.6089 5.91519 12.1521 5.91519C12.635 5.91519 12.8765 6.03591 13.0576 6.09627C13.299 6.21699 13.4801 6.27736 13.6612 6.45844C13.8423 6.63953 13.963 6.82061 14.0233 7.06206C14.0837 7.24314 14.1441 7.48459 14.2044 7.96748C14.2044 8.51073 14.2044 8.63145 14.2044 10.0198C14.2044 11.4081 14.2044 11.5288 14.2044 12.0721C14.2044 12.5549 14.0837 12.7964 14.0233 12.9775C13.9026 13.2189 13.8423 13.4 13.6612 13.5811C13.4801 13.7622 13.299 13.8829 13.0576 13.9433C12.8765 14.0036 12.635 14.064 12.1521 14.1243C11.6089 14.1243 11.4882 14.1243 10.0998 14.1243C8.71153 14.1243 8.59081 14.1243 8.04756 14.1243C7.56466 14.1243 7.32322 14.0036 7.14213 13.9433C6.90069 13.8225 6.7196 13.7622 6.53852 13.5811C6.35743 13.4 6.23671 13.2189 6.17635 12.9775C6.11599 12.7964 6.05563 12.5549 5.99527 12.0721C5.99527 11.5288 5.99527 11.4081 5.99527 10.0198C5.99527 8.63145 5.99527 8.51073 5.99527 7.96748C5.99527 7.48459 6.11599 7.24314 6.17635 7.06206C6.29707 6.82061 6.35743 6.63953 6.53852 6.45844C6.7196 6.27736 6.90069 6.15663 7.14213 6.09627C7.32322 6.03591 7.56466 5.97555 8.04756 5.91519C8.59081 5.91519 8.77189 5.91519 10.0998 5.91519ZM10.0998 5.00977C8.71153 5.00977 8.59081 5.00977 8.04756 5.00977C7.5043 5.00977 7.14213 5.13049 6.84033 5.25121C6.53852 5.37193 6.23671 5.55302 5.9349 5.85483C5.6331 6.15663 5.51237 6.39808 5.33129 6.76025C5.21057 7.06206 5.15021 7.42422 5.08984 7.96748C5.08984 8.51073 5.08984 8.69181 5.08984 10.0198C5.08984 11.4081 5.08984 11.5288 5.08984 12.0721C5.08984 12.6153 5.21057 12.9775 5.33129 13.2793C5.45201 13.5811 5.6331 13.8829 5.9349 14.1847C6.23671 14.4865 6.47816 14.6072 6.84033 14.7883C7.14213 14.909 7.5043 14.9694 8.04756 15.0298C8.59081 15.0298 8.77189 15.0298 10.0998 15.0298C11.4278 15.0298 11.6089 15.0298 12.1521 15.0298C12.6954 15.0298 13.0576 14.909 13.3594 14.7883C13.6612 14.6676 13.963 14.4865 14.2648 14.1847C14.5666 13.8829 14.6873 13.6415 14.8684 13.2793C14.9891 12.9775 15.0495 12.6153 15.1098 12.0721C15.1098 11.5288 15.1098 11.3477 15.1098 10.0198C15.1098 8.69181 15.1098 8.51073 15.1098 7.96748C15.1098 7.42422 14.9891 7.06206 14.8684 6.76025C14.7477 6.45844 14.5666 6.15663 14.2648 5.85483C13.963 5.55302 13.7215 5.4323 13.3594 5.25121C13.0576 5.13049 12.6954 5.07013 12.1521 5.00977C11.6089 5.00977 11.4882 5.00977 10.0998 5.00977Z" fill="white"/>
<path d="M10.0998 7.42422C8.65117 7.42422 7.5043 8.57109 7.5043 10.0198C7.5043 11.4684 8.65117 12.6153 10.0998 12.6153C11.5485 12.6153 12.6954 11.4684 12.6954 10.0198C12.6954 8.57109 11.5485 7.42422 10.0998 7.42422ZM10.0998 11.7099C9.19442 11.7099 8.40972 10.9855 8.40972 10.0198C8.40972 9.11434 9.13406 8.32965 10.0998 8.32965C11.0053 8.32965 11.79 9.05398 11.79 10.0198C11.79 10.9252 11.0053 11.7099 10.0998 11.7099Z" fill="white"/>
<path d="M12.7557 7.96748C13.0891 7.96748 13.3594 7.69723 13.3594 7.36386C13.3594 7.0305 13.0891 6.76025 12.7557 6.76025C12.4224 6.76025 12.1521 7.0305 12.1521 7.36386C12.1521 7.69723 12.4224 7.96748 12.7557 7.96748Z" fill="white"/>
</svg>
