<svg width="48" height="48" viewBox="0 0 48 48" fill="none" xmlns="http://www.w3.org/2000/svg">
<path d="M13.5 6H34.5C38.642 6 42 9.358 42 13.5V34.5C42 38.642 38.642 42 34.5 42H13.5C9.358 42 6 38.642 6 34.5V13.5C6 9.358 9.358 6 13.5 6Z" fill="#2962FF"/>
<path d="M21.499 26.0872H18.926L22.211 21.7412C22.283 21.6462 22.263 21.5062 22.167 21.4352C22.131 21.4072 22.083 21.3912 22.036 21.3912H17.284C16.866 21.3912 16.525 21.7332 16.525 22.1502C16.525 22.5672 16.867 22.9092 17.284 22.9092H19.419L16.123 27.2592C16.047 27.3542 16.067 27.4902 16.163 27.5652C16.203 27.5972 16.25 27.6132 16.298 27.6092H21.495C21.913 27.5892 22.235 27.2312 22.215 26.8102C22.195 26.4202 21.885 26.1102 21.495 26.0902V26.0862L21.499 26.0872ZM38.104 21.3912C37.686 21.3912 37.345 21.7332 37.345 22.1502V24.6992L33.241 21.4422C33.15 21.3662 33.01 21.3782 32.935 21.4742C32.903 21.5142 32.887 21.5612 32.887 21.6132V26.8502C32.887 27.2682 33.229 27.6092 33.646 27.6092C34.063 27.6092 34.405 27.2712 34.405 26.8502V24.3012L38.509 27.5622C38.604 27.6382 38.744 27.6222 38.819 27.5262C38.851 27.4862 38.867 27.4392 38.867 27.3912V22.1502C38.864 21.7292 38.526 21.3912 38.104 21.3912ZM27.245 26.2302C25.507 26.2302 24.211 25.3152 24.211 24.4962C24.211 23.6772 25.511 22.7622 27.245 22.7622C28.983 22.7622 30.279 23.6772 30.279 24.4962C30.279 25.3152 28.986 26.2302 27.245 26.2302ZM27.245 21.2432C24.732 21.2432 22.692 22.6982 22.692 24.4962C22.692 26.2942 24.732 27.7492 27.245 27.7492C29.758 27.7492 31.798 26.2942 31.798 24.4962C31.798 22.6982 29.758 21.2432 27.245 21.2432ZM12.297 26.2342C11.339 26.2342 10.559 25.4592 10.559 24.5002C10.559 23.5412 11.334 22.7622 12.293 22.7622C13.252 22.7622 14.031 23.5372 14.031 24.4962V24.5002C14.031 25.4552 13.256 26.2302 12.297 26.2342ZM12.297 21.2432C10.5 21.2432 9.04404 22.6982 9.04004 24.4962C9.04004 26.2932 10.495 27.7492 12.293 27.7532C14.09 27.7532 15.546 26.2982 15.55 24.5002V24.4962C15.546 22.6992 14.091 21.2432 12.297 21.2432Z" fill="white"/>
</svg>
