<svg width="60" height="30" viewBox="0 0 60 30" fill="none" xmlns="http://www.w3.org/2000/svg">
<rect width="60" height="30" rx="2" fill="#FA7950"/>
<path d="M20.7246 7.78125V22H18.2734L11.8965 11.8145V22H9.44531V7.78125H11.8965L18.293 17.9863V7.78125H20.7246ZM32.9512 20.0566V22H25.4023V20.0566H32.9512ZM26.0957 7.78125V22H23.6445V7.78125H26.0957ZM31.9648 13.7188V15.6328H25.4023V13.7188H31.9648ZM32.9023 7.78125V9.73438H25.4023V7.78125H32.9023ZM38.5176 18.8066L41.3496 7.78125H42.834L42.668 10.623L39.6406 22H38.0977L38.5176 18.8066ZM36.3984 7.78125L38.6934 18.7188L38.8984 22H37.2578L33.9668 7.78125H36.3984ZM46.0469 18.6895L48.3125 7.78125H50.7539L47.4629 22H45.8223L46.0469 18.6895ZM43.4102 7.78125L46.2129 18.8359L46.623 22H45.0801L42.1016 10.623L41.9453 7.78125H43.4102Z" fill="white"/>
</svg>
