<svg width="117" height="104" viewBox="0 0 117 104" fill="none" xmlns="http://www.w3.org/2000/svg">
<path d="M115.736 93.3548L66.545 3.67686C63.8983 -1.14929 56.7824 -1.24348 54.0044 3.5069L27.1418 49.5434C25.6677 52.0694 29.6077 54.3653 31.0839 51.8357L57.9458 5.80136C58.9694 4.05007 61.5686 4.08619 62.544 5.86439L111.735 95.5424C112.687 97.2795 111.401 99.4458 109.418 99.4458H7.78397C5.76717 99.4458 4.48743 97.2158 5.50328 95.4779L21.8569 67.4636C23.331 64.9382 19.3917 62.6409 17.9148 65.1712L1.56332 93.1835C-1.19196 97.8935 2.3401 104 7.78397 104H109.418C114.793 104 118.331 98.0847 115.736 93.3548Z" fill="#408858"/>
<path d="M59.2916 66.4092H59.2951C62.3966 66.4092 65.0022 63.9901 65.2277 60.9011L66.9544 37.2101C67.0736 35.57 66.4997 33.939 65.3774 32.7359C64.2559 31.532 62.6683 30.8408 61.021 30.8408H57.5649C55.9184 30.8408 54.3308 31.532 53.2092 32.7359C52.0877 33.939 51.5124 35.57 51.633 37.2101L53.3596 60.9025C53.5845 63.9901 56.1908 66.4092 59.2916 66.4092ZM56.5498 35.8369C56.7044 35.6719 57.0392 35.395 57.5649 35.395H61.021C61.5467 35.395 61.883 35.6719 62.0362 35.8369C62.1901 36.0012 62.4412 36.3567 62.4037 36.8794L60.677 60.5711C60.6245 61.2913 60.0173 61.855 59.2944 61.855H59.2908C58.5687 61.855 57.9614 61.2913 57.9082 60.5711L56.1816 36.8794C56.1447 36.3567 56.3972 36.0012 56.5498 35.8369C56.3972 36.0012 56.7044 35.6719 56.5498 35.8369Z" fill="#408858"/>
<path d="M59.2954 87.2077C63.8149 87.2077 67.4924 83.5359 67.4924 79.0234C67.4924 74.5117 63.8149 70.8398 59.2954 70.8398C54.7744 70.8398 51.0977 74.5117 51.0977 79.0234C51.0977 83.5359 54.7744 87.2077 59.2954 87.2077ZM59.2954 75.3941C61.3001 75.3941 62.931 77.0228 62.931 79.0234C62.931 81.0247 61.3001 82.6528 59.2954 82.6528C57.2906 82.6528 55.6598 81.0247 55.6598 79.0234C55.6598 77.0228 57.2906 75.3941 59.2954 75.3941Z" fill="#408858"/>
<path d="M24.3926 60.7964C25.6312 60.7964 26.6733 59.7568 26.6733 58.5197C26.6733 57.2818 25.6305 56.2422 24.3926 56.2422C23.1881 56.2422 22.168 57.2216 22.1155 58.4198C22.0587 59.6931 23.1129 60.7964 24.3926 60.7964Z" fill="#408858"/>
</svg>
